# Blender 3.1.0
# www.blender.org
o armadio
v 0.000000 2.422920 0.344367
v 0.000000 2.461437 0.305850
v 0.000000 0.038517 0.344367
v 0.000000 0.000000 0.305850
v 0.000000 2.422920 -0.344367
v 0.000000 2.461437 -0.305850
v 0.000000 0.038517 -0.344367
v 0.000000 0.000000 -0.305850
v -0.996542 0.000000 0.305850
v -0.996542 0.038517 0.344367
v -1.035059 0.038517 0.305850
v -0.996542 2.422920 0.344367
v -0.996542 2.461437 0.305850
v -1.035059 2.422920 0.305850
v -0.996542 0.000000 -0.305850
v -1.035059 0.038517 -0.305850
v -0.996542 0.038517 -0.344367
v -0.996542 2.461437 -0.305850
v -0.996542 2.422920 -0.344367
v -1.035059 2.422920 -0.305850
v 0.996542 0.000000 0.305850
v 1.035059 0.038517 0.305850
v 0.996542 0.038517 0.344367
v 0.996542 2.461437 0.305850
v 0.996542 2.422920 0.344367
v 1.035059 2.422920 0.305850
v 0.996542 0.000000 -0.305850
v 0.996542 0.038517 -0.344367
v 1.035059 0.038517 -0.305850
v 0.996542 2.461437 -0.305850
v 1.035059 2.422920 -0.305850
v 0.996542 2.422920 -0.344367
v -0.018045 0.056561 0.344367
v -0.018045 2.404875 0.344367
v -0.978498 2.404875 0.344367
v -0.978498 0.056561 0.344367
v 0.978498 0.056561 0.344367
v 0.978498 2.404875 0.344367
v 0.018045 2.404875 0.344367
v 0.018045 0.056561 0.344367
v -0.018045 2.404875 0.363096
v -0.018045 0.056561 0.363096
v -0.978498 0.056561 0.363096
v -0.978498 2.404875 0.363096
v 0.978498 2.404875 0.363096
v 0.978498 0.056561 0.363096
v 0.018045 0.056561 0.363096
v 0.018045 2.404875 0.363096
vn 1.0000 -0.0000 -0.0000
vn 0.8756 -0.3416 -0.3416
vn 0.8756 0.3416 -0.3416
vn 0.8756 0.3416 0.3416
vn 0.8756 -0.3416 0.3416
vn -0.3416 -0.8756 -0.3416
vn -0.0000 -0.9239 -0.3827
vn -0.0000 -0.9239 0.3827
vn -0.3416 -0.8756 0.3416
vn -0.0000 0.9239 -0.3827
vn -0.3416 0.8756 -0.3416
vn -0.3416 0.8756 0.3416
vn -0.0000 0.9239 0.3827
vn -0.8756 -0.3416 0.3416
vn -0.8756 0.3416 0.3416
vn -0.8756 0.3416 -0.3416
vn -0.8756 -0.3416 -0.3416
vn -0.0000 -0.3827 -0.9239
vn -0.0000 0.3827 -0.9239
vn 0.3416 0.3416 -0.8756
vn 0.3416 -0.3416 -0.8756
vn -0.3416 -0.3416 0.8756
vn -0.3416 0.3416 0.8756
vn -0.3416 -0.3416 -0.8756
vn -0.3416 0.3416 -0.8756
vn 0.3416 -0.8756 0.3416
vn 0.3416 -0.3416 0.8756
vn 0.3416 0.8756 0.3416
vn 0.3416 0.3416 0.8756
vn 0.3416 -0.8756 -0.3416
vn 0.3416 0.8756 -0.3416
vn -0.0000 -0.3827 0.9239
vn -0.0000 0.3827 0.9239
vn -0.0000 1.0000 -0.0000
vn -0.0000 -0.0000 1.0000
vn -1.0000 -0.0000 -0.0000
vn -0.0000 -1.0000 -0.0000
vt 0.348427 0.728725
vt 0.603881 0.713737
vt 0.348192 0.739504
vt 0.398817 0.712730
vt 0.387893 0.712306
vt 0.346275 0.875376
vt 0.282473 0.512062
vt 0.346510 0.864596
vt 0.250184 0.708032
vt 0.282473 0.963665
vt 0.261109 0.708456
vt 0.371650 0.901043
vt 0.295023 0.816020
vt 0.381726 0.903612
vt 0.232681 0.752209
vt 0.398054 0.907196
vt 0.373195 0.911161
vt 0.305338 0.816020
vt 0.295023 0.364415
vt 0.158532 0.732689
vt 0.604643 0.906312
vt 0.232681 0.452260
vt 0.160750 0.743039
vt 0.305340 0.364415
vt 0.150167 0.741132
vt 0.261476 0.898538
vt 0.259362 0.909235
vt 0.421194 0.816020
vt 0.431511 0.816020
vt 0.250946 0.900609
vt 0.093729 0.963665
vt 0.160119 0.851727
vt 0.431511 0.364415
vt 0.157753 0.861707
vt 0.093729 0.512062
vt 0.150167 0.853420
vt 0.421196 0.364415
vt 0.387525 0.522224
vt 0.389640 0.511527
vt 0.563985 0.669582
vt 0.563985 0.659265
vt 0.238315 0.452260
vt 0.398055 0.520153
vt 0.534584 0.752373
vt 0.112381 0.659266
vt 0.536950 0.742394
vt 0.238315 0.752209
vt 0.604643 0.519271
vt 0.544536 0.750681
vt 0.112381 0.669582
vt 0.277352 0.519719
vt 0.471217 0.963665
vt 0.563985 0.795755
vt 0.267276 0.517150
vt 0.563985 0.785438
vt 0.275807 0.509601
vt 0.533953 0.861061
vt 0.112381 0.785438
vt 0.544536 0.862968
vt 0.471217 0.512062
vt 0.536170 0.871411
vt 0.112381 0.795753
vt 0.402325 0.716265
vt 0.378145 0.778506
vt 0.600407 0.717237
vt 0.378145 0.402217
vt 0.601142 0.902839
vt 0.227486 0.457456
vt 0.604973 0.403116
vt 0.227536 0.749999
vt 0.401589 0.903689
vt 0.604973 0.779405
vt 0.233119 0.457456
vt 0.401556 0.523626
vt 0.000219 0.828550
vt 0.000219 0.452260
vt 0.233169 0.749999
vt 0.601108 0.522778
vt 0.600373 0.710201
vt 0.227047 0.453159
vt 0.402290 0.709229
vt 0.227047 0.829449
vt 0.654253 0.990343
vt 0.385866 0.407112
vt 0.656339 0.273478
vt 0.384376 0.772749
vt 0.358395 0.270024
vt 0.597252 0.774510
vt 0.356309 0.986889
vt 0.598742 0.408873
vt 0.007940 0.457155
vt 0.321743 0.987442
vt 0.323983 0.282897
vt 0.006450 0.822792
vt 0.003955 0.279502
vt 0.219326 0.824554
vt 0.001715 0.984047
vt 0.220816 0.458917
s 1
f 37/75/1 38/76/1 45/91/1 46/94/1
f 29/55/2 31/58/3 26/50/4 22/40/5
f 15/26/6 8/11/7 4/5/8 9/12/9
f 6/8/10 18/32/11 13/23/12 2/3/13
f 11/18/14 14/24/15 20/37/16 16/28/17
f 7/10/18 5/7/19 32/60/20 28/52/21
f 9/12/9 10/14/22 11/17/14
f 12/20/23 13/23/12 14/25/15
f 15/26/6 16/27/17 17/30/24
f 18/32/11 19/34/25 20/36/16
f 21/38/26 22/39/5 23/43/27
f 24/44/28 25/46/29 26/49/4
f 27/51/30 28/54/21 29/56/2
f 30/57/31 31/59/3 32/61/20
f 15/26/6 9/12/9 11/17/14 16/27/17
f 10/13/22 12/19/23 14/24/15 11/18/14
f 13/23/12 18/32/11 20/36/16 14/25/15
f 19/33/25 17/29/24 16/28/17 20/37/16
f 8/11/7 15/26/6 17/30/24 7/9/18
f 6/8/10 30/57/31 32/61/20 5/6/19
f 31/58/3 29/55/2 28/53/21 32/62/20
f 21/38/26 27/51/30 29/56/2 22/39/5
f 30/57/31 24/44/28 26/49/4 31/59/3
f 25/45/29 23/41/27 22/40/5 26/50/4
f 4/5/8 21/38/26 23/43/27 3/4/32
f 2/3/13 13/23/12 12/20/23 1/1/33
f 8/11/7 27/51/30 21/38/26 4/5/8
f 24/44/28 2/3/13 1/1/33 25/46/29
f 9/12/9 4/5/8 3/4/32 10/14/22
f 18/32/11 6/8/10 5/6/19 19/34/25
f 27/51/30 8/11/7 7/9/18 28/54/21
f 17/31/24 19/35/25 5/7/19 7/10/18
f 30/57/31 6/8/10 2/3/13 24/44/28
f 38/76/34 39/80/34 48/98/34 45/91/34
f 3/4/32 1/2/33 34/65/35 33/63/35
f 1/2/33 12/21/23 35/67/35 34/65/35
f 12/22/23 10/15/22 36/70/35 35/68/35
f 10/16/22 3/4/32 33/63/35 36/71/35
f 23/42/27 25/47/29 38/77/35 37/73/35
f 25/48/29 1/2/33 39/79/35 38/78/35
f 1/2/33 3/4/32 40/81/35 39/79/35
f 3/4/32 23/43/27 37/74/35 40/81/35
f 42/85/35 41/83/35 44/89/35 43/87/35
f 46/93/35 45/92/35 48/97/35 47/95/35
f 34/66/34 35/69/34 44/90/34 41/84/34
f 39/80/36 40/82/36 47/96/36 48/98/36
f 33/64/1 34/66/1 41/84/1 42/86/1
f 40/82/37 37/75/37 46/94/37 47/96/37
f 35/69/36 36/72/36 43/88/36 44/90/36
f 36/72/37 33/64/37 42/86/37 43/88/37
