# Blender 3.1.0
# www.blender.org
o attaccapanni
v 0.000000 0.000000 -0.260000
v -0.183848 0.000000 -0.183848
v -0.260000 0.000000 0.000000
v -0.183848 0.000000 0.183848
v 0.000000 0.000000 0.260000
v 0.183848 0.000000 0.183848
v 0.260000 0.000000 0.000000
v 0.183848 0.000000 -0.183848
v 0.000000 0.052516 -0.260000
v -0.183848 0.052516 -0.183848
v -0.260000 0.052516 0.000000
v -0.183848 0.052516 0.183848
v 0.000000 0.052516 0.260000
v 0.183848 0.052516 0.183848
v 0.260000 0.052516 0.000000
v 0.183848 0.052516 -0.183848
v 0.000000 0.052516 -0.042654
v -0.030161 0.052516 -0.030161
v -0.042654 0.052516 0.000000
v -0.030161 0.052516 0.030161
v 0.000000 0.052516 0.042654
v 0.030161 0.052516 0.030161
v 0.042654 0.052516 0.000000
v 0.030161 0.052516 -0.030161
v 0.000000 2.043913 -0.042654
v -0.030161 2.043913 -0.030161
v -0.042654 2.043913 0.000000
v -0.030161 2.043913 0.030161
v 0.000000 2.043913 0.042654
v 0.030161 2.043913 0.030161
v 0.042654 2.043913 0.000000
v 0.030161 2.043913 -0.030161
v 0.000000 2.043913 0.000000
v 0.000000 1.789554 -0.042654
v -0.030161 1.789554 0.030161
v -0.042654 1.789554 0.000000
v 0.030161 1.789554 0.030161
v 0.000000 1.789554 0.042654
v 0.030161 1.789554 -0.030161
v 0.042654 1.789554 0.000000
v -0.030161 1.789554 -0.030161
v 0.030161 1.828119 -0.030161
v 0.030161 1.828119 0.030161
v -0.030161 1.828119 0.030161
v -0.030161 1.828119 -0.030161
v 0.000000 1.828119 -0.042654
v -0.042654 1.828119 0.000000
v 0.000000 1.828119 0.042654
v 0.042654 1.828119 0.000000
v -0.327087 1.789554 0.153152
v -0.339580 1.789554 0.122991
v -0.339580 1.828119 0.122991
v -0.327087 1.828119 0.153152
v -0.300226 1.789554 0.142026
v -0.312719 1.789554 0.111865
v -0.312719 1.828119 0.111865
v -0.300226 1.828119 0.142026
v -0.327087 1.875488 0.153152
v -0.339580 1.875488 0.122991
v -0.300226 1.875488 0.142026
v -0.312719 1.875488 0.111865
v 0.042654 1.601497 0.000000
v 0.000000 1.601497 0.042654
v -0.042654 1.601497 0.000000
v 0.000000 1.601497 -0.042654
v -0.030161 1.601497 -0.030161
v -0.030161 1.601497 0.030161
v 0.030161 1.601497 0.030161
v 0.030161 1.601497 -0.030161
v -0.030161 1.642635 -0.030161
v -0.030161 1.642635 0.030161
v 0.030161 1.642635 0.030161
v 0.030161 1.642635 -0.030161
v 0.042654 1.642635 0.000000
v 0.000000 1.642635 0.042654
v -0.042654 1.642635 0.000000
v 0.000000 1.642635 -0.042654
v 0.097413 1.642635 0.277829
v 0.097413 1.601497 0.277829
v 0.127574 1.601497 0.265336
v 0.127574 1.642635 0.265336
v 0.116459 1.601497 0.238503
v 0.086298 1.601497 0.250996
v 0.116459 1.642635 0.238503
v 0.086298 1.642635 0.250996
v 0.127574 1.705403 0.265336
v 0.097413 1.705403 0.277829
v 0.116459 1.705403 0.238503
v 0.086298 1.705403 0.250996
v -0.030161 1.691608 -0.030161
v -0.030161 1.740581 -0.030161
v -0.030161 1.691608 0.030161
v -0.030161 1.740581 0.030161
v 0.030161 1.691608 0.030161
v 0.030161 1.740581 0.030161
v 0.030161 1.691608 -0.030161
v 0.030161 1.740581 -0.030161
v 0.042654 1.740581 0.000000
v 0.042654 1.691607 0.000000
v 0.000000 1.740581 0.042654
v 0.000000 1.691607 0.042654
v -0.042654 1.740581 0.000000
v -0.042654 1.691607 0.000000
v 0.000000 1.740581 -0.042654
v 0.000000 1.691607 -0.042654
v 0.276659 1.691608 -0.132264
v 0.276659 1.740581 -0.132264
v 0.289152 1.740581 -0.102103
v 0.289152 1.691607 -0.102103
v 0.261312 1.740581 -0.090571
v 0.248819 1.740581 -0.120732
v 0.261312 1.691607 -0.090571
v 0.248819 1.691608 -0.120732
v 0.276659 1.785011 -0.132264
v 0.289152 1.785011 -0.102103
v 0.261312 1.785011 -0.090571
v 0.248819 1.785011 -0.120732
v -0.023640 0.890949 0.317393
v 0.067968 0.885870 0.377817
v 0.206127 0.884809 0.301974
v 0.277235 0.884838 0.130073
v -0.035354 1.531625 0.312073
v 0.034627 1.500439 0.370922
v 0.175469 1.492063 0.311279
v 0.175501 1.470589 0.181820
v 0.163370 1.360469 0.301257
v 0.166902 1.210662 0.297152
v 0.187137 1.063989 0.299886
v 0.235210 1.066014 0.145525
v 0.211059 1.214001 0.160906
v 0.209324 1.359301 0.177887
v 0.036900 1.360927 0.351908
v 0.046518 1.208727 0.355077
v 0.062372 1.062422 0.367666
v -0.023695 1.339608 0.300601
v -0.011490 1.202710 0.321861
v -0.006831 1.062153 0.334242
v -0.046374 1.627609 0.282635
v 0.043919 1.689235 0.335902
v 0.158844 1.643410 0.296456
v 0.163637 1.563879 0.171587
v -0.040224 1.683311 0.269547
v 0.047017 1.718656 0.300311
v 0.140872 1.684972 0.274904
v 0.155786 1.607051 0.155155
v -0.014958 1.686414 0.173189
v 0.047273 1.721338 0.172142
v 0.124797 1.687580 0.169729
v 0.151162 1.606791 0.170525
v 0.136990 1.495252 0.333570
v 0.176926 1.481727 0.194877
v 0.147706 1.662598 0.305894
v 0.163271 1.559317 0.183371
v 0.180618 1.405098 0.259178
v 0.233840 1.469560 0.246925
v 0.181605 1.478919 0.332584
v 0.219803 1.526508 0.320725
v 0.206932 1.288387 0.269268
v 0.287151 1.336035 0.266434
v 0.199263 1.334770 0.345200
v 0.277655 1.356898 0.308808
v 0.252316 1.147156 0.265894
v 0.305866 1.179670 0.264062
v 0.243533 1.179430 0.318157
v 0.319802 1.223669 0.305302
v -0.089782 0.850109 0.252158
v -0.039764 1.442140 0.266017
v -0.060571 1.288703 0.235911
v -0.064621 1.179473 0.272773
v -0.068367 1.039665 0.279898
v -0.071016 1.608515 0.241806
v -0.081817 1.606716 0.218617
v -0.057570 1.597302 0.165301
v 0.045712 1.749705 0.290449
v -0.045295 1.714617 0.259569
v 0.147037 1.715935 0.262422
v 0.176936 1.648423 0.156883
v 0.045905 1.752350 0.162807
v -0.017149 1.717465 0.163735
v 0.124288 1.718544 0.160619
v 0.152819 1.638849 0.162611
v -0.058984 1.628327 0.156002
v -0.089335 1.639265 0.208829
v -0.039099 1.657426 0.302044
v -0.034128 1.499169 0.327746
v -0.061238 1.601979 0.250830
v -0.077650 1.446650 0.294221
v -0.036431 1.451338 0.274788
v -0.053407 1.419114 0.284608
v -0.102614 1.489232 0.329249
v -0.062235 1.470739 0.320722
v -0.152032 1.300564 0.265156
v -0.078091 1.237015 0.255739
v -0.132026 1.326747 0.307405
v -0.065582 1.260041 0.296632
v -0.179354 1.194741 0.267555
v -0.096832 1.136692 0.248621
v -0.167219 1.225854 0.313200
v -0.082731 1.165913 0.294321
vn -0.3827 -0.0000 0.9239
vn -0.9239 -0.0000 -0.3827
vn 0.9239 -0.0000 -0.3827
vn 0.3827 -0.0000 0.9239
vn -0.9239 -0.0000 0.3827
vn -0.3827 -0.0000 -0.9239
vn 0.3827 -0.0000 -0.9239
vn 0.9239 -0.0000 0.3827
vn -0.0000 1.0000 -0.0000
vn -0.0000 -1.0000 -0.0000
vn 0.9433 0.1908 0.2717
vn 0.3527 -0.1364 0.9258
vn -0.5661 -0.1492 0.8107
vn -0.5040 -0.0004 0.8637
vn -0.4653 0.0437 0.8841
vn -0.5839 0.0245 0.8114
vn 0.4783 0.0632 0.8759
vn 0.4527 0.1021 0.8858
vn 0.4025 0.0147 0.9153
vn 0.9291 0.1447 0.3403
vn 0.9445 0.1293 0.3021
vn 0.9447 -0.0066 0.3278
vn 0.8615 0.4425 -0.2489
vn 0.3275 0.1459 0.9335
vn -0.4740 0.1575 0.8663
vn 0.9789 0.2031 -0.0224
vn 0.3812 0.7399 0.5542
vn -0.4784 0.6883 0.5453
vn -0.8804 -0.2455 -0.4058
vn -0.6146 0.1253 -0.7788
vn 0.1407 -0.2795 -0.9498
vn 0.2282 -0.9605 0.1594
vn 0.8978 0.3863 -0.2116
vn 0.5724 0.1188 0.8113
vn 0.9874 0.1375 -0.0785
vn 0.9384 0.3431 -0.0397
vn -0.3231 0.1601 0.9327
vn -0.9964 -0.0783 0.0323
vn 0.6103 -0.2931 -0.7359
vn 0.3069 -0.0089 0.9517
vn -0.0107 -0.1208 -0.9926
vn 0.3381 0.0834 0.9374
vn -0.9838 -0.1586 0.0836
vn 0.4725 -0.6955 0.5413
vn -0.9539 -0.2943 0.0582
vn 0.9559 0.2052 -0.2099
vn -0.0411 0.0104 -0.9991
vn -0.9143 0.2618 0.3091
vn -0.6785 -0.0189 0.7344
vn -0.8128 0.1082 0.5724
vn -0.4007 0.2403 0.8841
vn -0.6796 0.0487 0.7319
vn -0.9389 -0.0316 0.3427
vn 0.7899 -0.2621 0.5544
vn 0.7246 0.5651 -0.3945
vn 0.3500 0.9367 -0.0130
vn -0.4086 0.9122 -0.0294
vn -0.7807 0.5270 -0.3359
vn 0.3456 0.2940 0.8911
vn 0.5786 -0.2049 -0.7895
vn -0.1519 -0.2862 -0.9461
vn -0.7891 0.0343 0.6134
vn 0.8895 -0.2825 0.3593
vn -0.5620 -0.2062 -0.8010
vn -0.9720 -0.0102 0.2348
vn -0.8004 -0.0508 0.5973
vn -0.7867 -0.2190 0.5772
vn -0.9987 0.0502 -0.0019
vn -0.8617 0.3504 -0.3671
vn -0.4021 -0.1829 -0.8971
vn -0.9458 0.1448 -0.2908
vn 0.1059 0.2245 0.9687
vn -0.9439 0.2916 0.1551
vn -0.0231 0.1806 -0.9833
vn 0.9969 -0.0745 0.0245
vn 0.0762 -0.1284 0.9888
vn -0.3763 -0.7197 0.5835
vn -0.1377 0.0534 -0.9890
vn 0.9662 -0.1689 -0.1950
vn 0.1700 -0.0280 0.9850
vt 0.565286 0.038627
vt 0.051290 0.038627
vt 0.501037 0.038627
vt 0.436787 0.038627
vt 0.372538 0.038627
vt 0.308288 0.038627
vt 0.244039 0.038627
vt 0.179789 0.038627
vt 0.115539 0.038627
vt 0.565286 0.021671
vt 0.051290 0.021671
vt 0.727348 0.256267
vt 0.501036 0.021671
vt 0.681916 0.301698
vt 0.436787 0.021671
vt 0.617667 0.301698
vt 0.372538 0.021671
vt 0.572236 0.256267
vt 0.308288 0.021671
vt 0.572236 0.192017
vt 0.244039 0.021671
vt 0.617667 0.146586
vt 0.179789 0.021671
vt 0.681916 0.146586
vt 0.115539 0.021671
vt 0.727348 0.192017
vt 0.662515 0.229412
vt 0.694247 0.038956
vt 0.694247 0.123279
vt 0.655062 0.236865
vt 0.694247 0.049497
vt 0.644521 0.236865
vt 0.694247 0.060037
vt 0.637068 0.229412
vt 0.694247 0.070577
vt 0.637068 0.218872
vt 0.694247 0.081117
vt 0.644521 0.211419
vt 0.694247 0.091658
vt 0.655062 0.211419
vt 0.694247 0.102198
vt 0.662515 0.218872
vt 0.694247 0.112738
vt 0.051290 0.038956
vt 0.051290 0.123280
vt 0.388809 0.151837
vt 0.051290 0.049497
vt 0.378269 0.151837
vt 0.051290 0.060037
vt 0.370815 0.144384
vt 0.051290 0.070578
vt 0.370815 0.133844
vt 0.051290 0.081118
vt 0.378269 0.126391
vt 0.051290 0.091659
vt 0.388809 0.126391
vt 0.051290 0.102199
vt 0.396262 0.133844
vt 0.051290 0.112740
vt 0.396262 0.144384
vt 0.383539 0.139114
vt 0.133415 0.123280
vt 0.133415 0.038956
vt 0.133415 0.070578
vt 0.727677 0.208642
vt 0.363905 0.138366
vt 0.133415 0.060037
vt 0.833015 0.146257
vt 0.363905 0.127825
vt 0.133415 0.091659
vt 0.133415 0.081118
vt 0.133415 0.112740
vt 0.133415 0.102199
vt 0.133415 0.049497
vt 0.120964 0.112740
vt 0.120964 0.091659
vt 0.120964 0.070578
vt 0.170351 0.010802
vt 0.727677 0.196190
vt 0.120964 0.049497
vt 0.120964 0.123280
vt 0.120964 0.038956
vt 0.120964 0.060037
vt 0.170351 0.021342
vt 0.845466 0.146257
vt 0.120964 0.081118
vt 0.120964 0.102199
vt 0.260137 0.138366
vt 0.341820 0.142450
vt 0.260137 0.127825
vt 0.833015 0.042490
vt 0.247686 0.127825
vt 0.845466 0.042490
vt 0.329369 0.142450
vt 0.247686 0.138366
vt 0.341820 0.151837
vt 0.822057 0.208642
vt 0.269524 0.138366
vt 0.833015 0.051877
vt 0.269524 0.127826
vt 0.075971 0.021342
vt 0.845466 0.051877
vt 0.329369 0.151837
vt 0.822057 0.196190
vt 0.075971 0.010802
vt 0.314075 0.142450
vt 0.051290 0.010802
vt 0.232392 0.138366
vt 0.051290 0.021342
vt 0.232392 0.127825
vt 0.860760 0.042490
vt 0.314075 0.151837
vt 0.060677 0.010802
vt 0.060677 0.021342
vt 0.860760 0.051877
vt 0.194134 0.102199
vt 0.194134 0.081118
vt 0.809864 0.301698
vt 0.727677 0.219511
vt 0.194134 0.060037
vt 0.194134 0.038956
vt 0.194134 0.123280
vt 0.194134 0.049497
vt 0.194134 0.070578
vt 0.194134 0.091659
vt 0.396262 0.152166
vt 0.727677 0.208971
vt 0.194134 0.112740
vt 0.180852 0.049497
vt 0.180852 0.070578
vt 0.287310 0.021342
vt 0.396262 0.165448
vt 0.180852 0.091659
vt 0.180852 0.112740
vt 0.180852 0.102199
vt 0.823146 0.301698
vt 0.287310 0.010802
vt 0.180852 0.081118
vt 0.180852 0.060037
vt 0.180852 0.038956
vt 0.180852 0.123280
vt 0.823146 0.219511
vt 0.809864 0.219511
vt 0.809864 0.208971
vt 0.314075 0.152166
vt 0.314075 0.165448
vt 0.823146 0.208971
vt 0.323452 0.152166
vt 0.800486 0.208971
vt 0.809864 0.228888
vt 0.800486 0.219511
vt 0.323452 0.165448
vt 0.360120 0.021342
vt 0.360120 0.010802
vt 0.823146 0.228888
vt 0.314075 0.185714
vt 0.389763 0.021342
vt 0.843412 0.208971
vt 0.389763 0.010802
vt 0.843412 0.219511
vt 0.323452 0.185714
vt 0.380386 0.021342
vt 0.380386 0.010802
vt 0.843412 0.228888
vt 0.165039 0.049497
vt 0.149227 0.049497
vt 0.165040 0.070578
vt 0.149228 0.070578
vt 0.165040 0.091659
vt 0.149227 0.091659
vt 0.165040 0.112740
vt 0.170680 0.010802
vt 0.891246 0.146257
vt 0.149228 0.112740
vt 0.875434 0.146257
vt 0.828166 0.185321
vt 0.149228 0.102199
vt 0.859553 0.301698
vt 0.828166 0.195861
vt 0.165040 0.102199
vt 0.170680 0.021342
vt 0.843741 0.301698
vt 0.149228 0.081118
vt 0.165040 0.081118
vt 0.149227 0.060037
vt 0.165040 0.060037
vt 0.149227 0.038956
vt 0.149228 0.123280
vt 0.165040 0.038956
vt 0.165040 0.123280
vt 0.891246 0.060113
vt 0.256824 0.010802
vt 0.875435 0.060113
vt 0.272636 0.010802
vt 0.272636 0.021342
vt 0.859553 0.215554
vt 0.843741 0.215554
vt 0.256824 0.021342
vt 0.859553 0.225283
vt 0.751751 0.195861
vt 0.875435 0.069842
vt 0.751751 0.185321
vt 0.247095 0.021342
vt 0.843741 0.225283
vt 0.247095 0.010802
vt 0.891246 0.069842
vt 0.861089 0.060113
vt 0.727677 0.185321
vt 0.286981 0.010802
vt 0.727677 0.195861
vt 0.286981 0.021342
vt 0.873898 0.215554
vt 0.873898 0.225283
vt 0.737406 0.195861
vt 0.861089 0.069842
vt 0.737406 0.185321
vt 0.143712 0.437601
vt 0.199249 0.428779
vt 0.279709 0.423197
vt 0.375247 0.421905
vt 0.165550 0.766838
vt 0.738173 0.628833
vt 0.208524 0.750299
vt 0.288023 0.761577
vt 0.561265 0.618878
vt 0.344575 0.725465
vt 0.357842 0.838076
vt 0.277745 0.674826
vt 0.274942 0.594099
vt 0.277469 0.515842
vt 0.360957 0.516688
vt 0.350159 0.593638
vt 0.345553 0.667630
vt 0.204212 0.679910
vt 0.202943 0.597139
vt 0.204497 0.519427
vt 0.160318 0.671344
vt 0.167121 0.596989
vt 0.165318 0.523502
vt 0.158764 0.813114
vt 0.714797 0.675715
vt 0.204160 0.828207
vt 0.255846 0.831244
vt 0.633976 0.593349
vt 0.320069 0.864820
vt 0.165313 0.835540
vt 0.201833 0.844210
vt 0.243353 0.851779
vt 0.379191 0.447066
vt 0.305933 0.882251
vt 0.473932 0.486369
vt 0.441789 0.502179
vt 0.402998 0.484923
vt 0.387065 0.445356
vt 0.266077 0.752273
vt 0.340706 0.733375
vt 0.350011 0.834968
vt 0.579609 0.675715
vt 0.565942 0.518960
vt 0.246626 0.834461
vt 0.319126 0.858707
vt 0.605236 0.526704
vt 0.514542 0.518960
vt 0.530683 0.660779
vt 0.543047 0.552645
vt 0.549751 0.613671
vt 0.568228 0.590970
vt 0.467124 0.665912
vt 0.452702 0.521068
vt 0.470767 0.564607
vt 0.486649 0.627225
vt 0.483299 0.584470
vt 0.662632 0.708117
vt 0.388036 0.665814
vt 0.375758 0.536467
vt 0.631359 0.704727
vt 0.389618 0.566575
vt 0.662115 0.676978
vt 0.406508 0.638381
vt 0.617394 0.676978
vt 0.412436 0.589656
vt 0.094232 0.421905
vt 0.117507 0.738915
vt 0.140934 0.725805
vt 0.119824 0.646346
vt 0.128536 0.587862
vt 0.122238 0.516451
vt 0.135553 0.814120
vt 0.125215 0.818784
vt 0.096586 0.834551
vt 0.502063 0.445356
vt 0.198816 0.856506
vt 0.165349 0.847929
vt 0.237014 0.864229
vt 0.375758 0.470150
vt 0.287778 0.895582
vt 0.183085 0.917351
vt 0.441894 0.518448
vt 0.144840 0.891834
vt 0.474451 0.502690
vt 0.238013 0.913603
vt 0.402694 0.501122
vt 0.289034 0.911558
vt 0.386262 0.461930
vt 0.104978 0.851326
vt 0.502224 0.461627
vt 0.130245 0.834442
vt 0.170222 0.821187
vt 0.170456 0.751181
vt 0.139592 0.808769
vt 0.693472 0.665668
vt 0.689773 0.584332
vt 0.760802 0.589868
vt 0.123128 0.740843
vt 0.144778 0.730736
vt 0.667630 0.594068
vt 0.671243 0.575251
vt 0.754057 0.571566
vt 0.713580 0.600185
vt 0.733353 0.595988
vt 0.689387 0.497757
vt 0.643200 0.483066
vt 0.773178 0.479811
vt 0.709483 0.515041
vt 0.751795 0.490205
vt 0.668917 0.735832
vt 0.685159 0.445274
vt 0.617394 0.735929
vt 0.634487 0.431451
vt 0.780632 0.431451
vt 0.677027 0.708629
vt 0.710001 0.460496
vt 0.624177 0.708629
vt 0.757215 0.444497
s 0
f 4/5/1 5/6/1 13/19/1 12/17/1
f 2/3/2 3/4/2 11/15/2 10/13/2
f 7/8/3 8/9/3 16/25/3 15/23/3
f 5/6/4 6/7/4 14/21/4 13/19/4
f 3/4/5 4/5/5 12/17/5 11/15/5
f 1/1/6 2/3/6 10/13/6 9/10/6
f 8/9/7 1/2/7 9/11/7 16/25/7
f 6/7/8 7/8/8 15/23/8 14/21/8
f 15/24/9 16/26/9 24/42/9 23/40/9
f 13/20/9 14/22/9 22/38/9 21/36/9
f 11/16/9 12/18/9 20/34/9 19/32/9
f 9/12/9 10/14/9 18/30/9 17/27/9
f 16/26/9 9/12/9 17/27/9 24/42/9
f 14/22/9 15/24/9 23/40/9 22/38/9
f 12/18/9 13/20/9 21/36/9 20/34/9
f 10/14/9 11/16/9 19/32/9 18/30/9
f 49/87/3 42/75/3 32/59/3 31/57/3
f 48/86/4 43/76/4 30/55/4 29/53/4
f 47/83/5 44/77/5 28/51/5 27/49/5
f 46/82/6 45/80/6 26/47/6 25/44/6
f 42/75/7 46/81/7 25/45/7 32/59/7
f 43/76/8 49/87/8 31/57/8 30/55/8
f 44/77/1 48/86/1 29/53/1 28/51/1
f 45/80/2 47/83/2 27/49/2 26/47/2
f 28/52/9 29/54/9 33/61/9
f 26/48/9 27/50/9 33/61/9
f 31/58/9 32/60/9 33/61/9
f 29/54/9 30/56/9 33/61/9
f 27/50/9 28/52/9 33/61/9
f 25/46/9 26/48/9 33/61/9
f 32/60/9 25/46/9 33/61/9
f 30/56/9 31/58/9 33/61/9
f 91/166/2 102/185/2 36/67/2 41/74/2
f 93/168/1 100/183/1 38/71/1 35/64/1
f 95/170/8 98/177/8 40/73/8 37/70/8
f 97/174/7 104/188/7 34/62/7 39/72/7
f 104/187/6 91/166/6 41/74/6 34/63/6
f 102/185/5 93/168/5 35/64/5 36/67/5
f 100/183/4 95/170/4 37/70/4 38/71/4
f 98/177/3 97/174/3 39/72/3 40/73/3
f 41/74/2 36/67/2 47/83/2 45/80/2
f 35/64/1 38/71/1 48/86/1 44/77/1
f 37/70/8 40/73/8 49/87/8 43/76/8
f 39/72/7 34/62/7 46/81/7 42/75/7
f 34/63/6 41/74/6 45/80/6 46/82/6
f 55/100/10 54/98/10 50/88/10 51/90/10
f 38/71/4 37/70/4 43/76/4 48/86/4
f 40/73/3 39/72/3 42/75/3 49/87/3
f 51/90/5 50/88/5 53/95/5 52/92/5
f 56/102/6 55/99/6 51/91/6 52/93/6
f 54/96/4 57/103/4 53/94/4 50/89/4
f 53/94/4 57/103/4 60/112/4 58/106/4
f 44/78/9 47/84/9 56/101/9 57/105/9
f 35/65/4 44/79/4 57/104/4 54/97/4
f 47/85/6 36/68/6 55/99/6 56/102/6
f 36/69/10 35/66/10 54/98/10 55/100/10
f 60/113/9 61/114/9 59/109/9 58/107/9
f 52/92/5 53/95/5 58/108/5 59/110/5
f 57/105/3 56/101/3 61/114/3 60/113/3
f 56/102/6 52/93/6 59/111/6 61/115/6
f 23/41/3 24/43/3 69/128/3 62/116/3
f 21/37/4 22/39/4 68/125/4 63/117/4
f 19/33/5 20/35/5 67/124/5 64/120/5
f 17/28/6 18/31/6 66/123/6 65/121/6
f 24/43/7 17/29/7 65/122/7 69/128/7
f 22/39/8 23/41/8 62/116/8 68/125/8
f 20/35/1 21/37/1 63/117/1 67/124/1
f 18/31/2 19/33/2 64/120/2 66/123/2
f 62/116/3 69/128/3 73/134/3 74/135/3
f 83/151/10 82/149/10 80/144/10 79/143/10
f 64/120/5 67/124/5 71/130/5 76/139/5
f 65/121/6 66/123/6 70/129/6 77/140/6
f 69/128/7 65/122/7 77/141/7 73/134/7
f 68/125/8 62/116/8 74/135/8 72/133/8
f 67/124/1 63/117/1 75/138/1 71/130/1
f 66/123/2 64/120/2 76/139/2 70/129/2
f 79/143/4 80/144/4 81/147/4 78/142/4
f 82/148/3 84/152/3 81/146/3 80/145/3
f 81/146/3 84/152/3 88/161/3 86/156/3
f 85/155/5 83/150/5 79/143/5 78/142/5
f 75/136/5 63/118/5 83/150/5 85/155/5
f 72/131/9 75/137/9 85/154/9 84/153/9
f 68/126/3 72/132/3 84/152/3 82/148/3
f 63/119/10 68/127/10 82/149/10 83/151/10
f 88/162/9 89/163/9 87/159/9 86/157/9
f 84/153/6 85/154/6 89/163/6 88/162/6
f 85/155/5 78/142/5 87/160/5 89/164/5
f 78/142/4 81/147/4 86/158/4 87/160/4
f 74/135/3 73/134/3 96/171/3 99/180/3
f 107/193/6 111/201/6 117/215/6 114/207/6
f 75/138/4 72/133/4 94/169/4 101/184/4
f 101/184/4 94/169/4 95/170/4 100/183/4
f 76/139/5 71/130/5 92/167/5 103/186/5
f 103/186/5 92/167/5 93/168/5 102/185/5
f 77/140/6 70/129/6 90/165/6 105/189/6
f 105/189/6 90/165/6 91/166/6 104/187/6
f 73/134/7 77/141/7 105/190/7 96/171/7
f 96/171/7 105/190/7 104/188/7 97/174/7
f 72/133/8 74/135/8 99/180/8 94/169/8
f 94/169/8 99/180/8 98/177/8 95/170/8
f 71/130/1 75/138/1 101/184/1 92/167/1
f 92/167/1 101/184/1 100/183/1 93/168/1
f 70/129/2 76/139/2 103/186/2 90/165/2
f 90/165/2 103/186/2 102/185/2 91/166/2
f 109/198/3 106/192/3 107/194/3 108/195/3
f 110/199/4 112/204/4 109/197/4 108/196/4
f 113/206/6 111/201/6 107/193/6 106/191/6
f 112/203/10 113/205/10 106/192/10 109/198/10
f 99/181/10 96/172/10 113/205/10 112/203/10
f 96/173/6 97/175/6 111/201/6 113/206/6
f 98/178/4 99/182/4 112/204/4 110/199/4
f 97/176/9 98/179/9 110/200/9 111/202/9
f 117/216/9 116/214/9 115/210/9 114/208/9
f 108/195/3 107/194/3 114/209/3 115/211/3
f 110/199/4 108/196/4 115/212/4 116/213/4
f 111/202/5 110/200/5 116/214/5 117/216/5
f 126/228/11 131/233/11 125/226/11 150/255/11
f 132/234/12 126/228/12 150/255/12 123/223/12
f 135/237/13 132/234/13 123/223/13 185/309/13
f 118/217/14 119/218/14 134/236/14 137/239/14
f 137/239/15 134/236/15 133/235/15 136/238/15
f 136/238/16 133/235/16 132/234/16 135/237/16
f 119/218/17 120/219/17 128/230/17 134/236/17
f 134/236/18 128/230/18 127/229/18 133/235/18
f 133/235/19 127/229/19 126/228/19 132/234/19
f 120/219/20 121/220/20 129/231/20 128/230/20
f 128/230/21 129/231/21 130/232/21 127/229/21
f 127/229/22 130/232/22 131/233/22 126/228/22
f 153/262/23 140/244/23 157/267/23 155/265/23
f 123/223/24 150/255/24 152/260/24 139/242/24
f 185/309/25 123/223/25 139/242/25 184/308/25
f 152/260/26 141/245/26 145/250/26 144/248/26
f 139/242/27 152/260/27 144/248/27 143/247/27
f 184/308/28 139/242/28 143/247/28 142/246/28
f 173/290/29 172/289/29 183/307/29 182/305/29
f 145/249/30 149/254/30 181/304/30 177/295/30
f 147/252/31 146/251/31 179/300/31 178/298/31
f 151/256/32 124/224/32 150/255/32 125/226/32
f 140/243/33 153/261/33 141/245/33 152/260/33
f 124/224/34 140/243/34 152/260/34 150/255/34
f 153/261/35 151/257/35 125/227/35 141/245/35
f 155/265/36 157/267/36 161/272/36 159/270/36
f 140/244/37 124/225/37 156/266/37 157/267/37
f 124/225/38 151/258/38 154/264/38 156/266/38
f 151/259/39 153/262/39 155/265/39 154/263/39
f 161/272/40 160/271/40 164/279/40 165/281/40
f 154/263/41 155/265/41 159/270/41 158/269/41
f 157/267/42 156/266/42 160/271/42 161/272/42
f 156/266/43 154/264/43 158/268/43 160/271/43
f 164/278/44 162/273/44 163/276/44 165/280/44
f 160/271/45 158/268/45 162/274/45 164/279/45
f 159/270/46 161/272/46 165/281/46 163/277/46
f 158/269/47 159/270/47 163/277/47 162/275/47
f 184/308/48 142/246/48 172/289/48 171/288/48
f 118/217/49 137/239/49 170/287/49 166/282/49
f 136/238/50 135/237/50 168/285/50 169/286/50
f 142/246/51 143/247/51 174/292/51 175/293/51
f 137/239/52 136/238/52 169/286/52 170/287/52
f 135/237/53 185/309/53 167/284/53 168/285/53
f 188/313/54 122/222/54 191/320/54 189/318/54
f 176/294/55 177/296/55 181/303/55 180/301/55
f 174/292/56 176/294/56 180/301/56 178/297/56
f 175/293/57 174/292/57 178/297/57 179/299/57
f 175/293/58 179/299/58 182/305/58 183/307/58
f 143/247/59 144/248/59 176/294/59 174/292/59
f 146/251/60 173/291/60 182/306/60 179/300/60
f 148/253/61 147/252/61 178/298/61 180/302/61
f 172/289/62 142/246/62 175/293/62 183/307/62
f 144/248/63 145/250/63 177/296/63 176/294/63
f 149/254/64 148/253/64 180/302/64 181/304/64
f 138/240/65 122/221/65 185/309/65 184/308/65
f 188/314/66 186/310/66 171/288/66 167/283/66
f 186/310/67 138/240/67 184/308/67 171/288/67
f 122/221/68 188/315/68 167/284/68 185/309/68
f 190/319/69 187/312/69 192/321/69 194/324/69
f 186/311/70 188/316/70 189/317/70 187/312/70
f 138/241/71 186/311/71 187/312/71 190/319/71
f 122/222/72 138/241/72 190/319/72 191/320/72
f 194/324/73 192/321/73 196/327/73 198/332/73
f 187/312/74 189/317/74 193/322/74 192/321/74
f 189/318/75 191/320/75 195/325/75 193/323/75
f 191/320/76 190/319/76 194/324/76 195/325/76
f 199/333/77 198/331/77 196/326/77 197/328/77
f 192/321/78 193/322/78 197/329/78 196/327/78
f 193/323/79 195/325/79 199/334/79 197/330/79
f 195/325/80 194/324/80 198/332/80 199/334/80
