# Blender 3.3.0
# www.blender.org
o lattina.001
v 0.238616 0.058496 -0.187636
v 0.222310 0.105406 -0.172001
v 0.185670 0.116991 -0.136870
v 0.156287 0.084529 -0.108698
v 0.156287 0.032463 -0.108698
v 0.185670 0.000000 -0.136870
v 0.222310 0.011586 -0.172001
v 0.374060 0.058496 -0.046374
v 0.357754 0.105406 -0.030739
v 0.321114 0.116991 0.004391
v 0.291731 0.084529 0.032564
v 0.291731 0.032463 0.032564
v 0.321114 -0.000000 0.004391
v 0.357754 0.011586 -0.030739
v 0.330751 0.058496 -0.004849
v 0.195307 0.058496 -0.146111
v -0.042150 0.058496 -0.206675
v -0.049194 0.105406 -0.228140
v -0.065020 0.116991 -0.276370
v -0.077712 0.084529 -0.315048
v -0.077712 0.032463 -0.315048
v -0.065020 0.000000 -0.276370
v -0.049194 0.011586 -0.228140
v -0.291469 0.058496 -0.124863
v -0.298512 0.105406 -0.146328
v -0.314339 0.116991 -0.194558
v -0.327030 0.084529 -0.233236
v -0.327030 0.032463 -0.233236
v -0.314339 0.000000 -0.194558
v -0.298512 0.011586 -0.146328
v -0.343205 0.058496 -0.141280
v -0.346524 0.080598 -0.151394
v -0.353981 0.086057 -0.174119
v -0.359961 0.070762 -0.192343
v -0.359961 0.046230 -0.192343
v -0.353981 0.030934 -0.174119
v -0.346524 0.036393 -0.151394
v -0.430379 0.058496 -0.112675
v -0.433698 0.080598 -0.122788
v -0.441155 0.086057 -0.145513
v -0.447135 0.070762 -0.163737
v -0.447135 0.046230 -0.163737
v -0.441155 0.030934 -0.145513
v -0.433698 0.036393 -0.122788
v -0.428444 0.058496 -0.106777
v -0.432491 0.085451 -0.119111
v -0.441586 0.092108 -0.146825
v -0.448879 0.073455 -0.169050
v -0.448879 0.043537 -0.169050
v -0.441586 0.024883 -0.146825
v -0.432491 0.031540 -0.119111
v -0.456340 0.058496 -0.097624
v -0.460387 0.085451 -0.109958
v -0.469481 0.092108 -0.137672
v -0.476774 0.073455 -0.159896
v -0.476774 0.043537 -0.159896
v -0.469481 0.024883 -0.137672
v -0.460387 0.031540 -0.109958
v -0.467089 0.058496 -0.130382
v -0.060857 0.058496 -0.263684
v -0.118215 0.058496 -0.031315
v -0.109745 0.105406 -0.010373
v -0.090715 0.116991 0.036686
v -0.075453 0.084529 0.074423
v -0.075453 0.032463 0.074423
v -0.090715 0.000000 0.036686
v -0.109745 0.011586 -0.010373
v 0.063215 0.058496 -0.104687
v 0.071684 0.105406 -0.083744
v 0.090715 0.116991 -0.036686
v 0.105976 0.084529 0.001052
v 0.105976 0.032463 0.001052
v 0.090715 -0.000000 -0.036686
v 0.071684 0.011586 -0.083744
v 0.085709 0.058496 -0.049063
v -0.095720 0.058496 0.024308
vn 0.6503 -0.4339 -0.6235
vn -0.4500 -0.7818 0.4315
vn -0.4500 0.7818 0.4315
vn 0.6503 0.4339 -0.6235
vn 0.1606 -0.9749 -0.1540
vn -0.7218 -0.0000 0.6921
vn 0.1606 0.9749 -0.1540
vn 0.6921 -0.0000 0.7218
vn -0.6921 -0.0000 -0.7218
vn -0.1944 0.7818 -0.5924
vn 0.2809 0.4339 0.8561
vn 0.0694 -0.9749 0.2114
vn -0.3118 -0.0000 -0.9502
vn 0.0694 0.9749 0.2114
vn 0.2809 -0.4339 0.8561
vn -0.1944 -0.7818 -0.5924
vn -0.2817 -0.3639 0.8878
vn -0.6804 -0.6558 -0.3271
vn -0.6804 0.6558 -0.3271
vn -0.2817 0.3639 0.8878
vn -0.4591 -0.8177 0.3471
vn -0.7789 -0.0000 -0.6272
vn -0.4591 0.8177 0.3471
vn 0.9502 -0.0000 -0.3118
vn 0.9501 -0.0000 -0.3118
vn -0.9502 -0.0000 0.3118
vn -0.3378 -0.4339 -0.8353
vn 0.2338 -0.7818 0.5780
vn 0.2338 0.7818 0.5780
vn -0.3378 0.4339 -0.8353
vn -0.0834 -0.9749 -0.2063
vn 0.3749 -0.0000 0.9271
vn -0.0834 0.9749 -0.2063
vn 0.9271 -0.0000 -0.3749
vn -0.9271 -0.0000 0.3749
vt 0.305052 0.435120
vt 0.116787 0.211081
vt 0.305052 0.510073
vt 0.189861 0.227760
vt 0.305052 0.585026
vt 0.248461 0.181028
vt 0.305052 0.659979
vt 0.248461 0.106075
vt 0.305052 0.734931
vt 0.189861 0.059343
vt 0.305052 0.809884
vt 0.305052 0.285215
vt 0.116787 0.076021
vt 0.305052 0.360167
vt 0.084266 0.143551
vt 0.023322 0.435120
vt 0.516576 0.054398
vt 0.023322 0.510073
vt 0.516576 0.129351
vt 0.023322 0.585026
vt 0.457976 0.176083
vt 0.023322 0.659979
vt 0.384902 0.159405
vt 0.023322 0.734931
vt 0.352382 0.091875
vt 0.023322 0.809884
vt 0.023322 0.285215
vt 0.384902 0.024345
vt 0.023322 0.360168
vt 0.457976 0.007666
vt 0.438756 0.091875
vt 0.170641 0.143551
vt 0.436896 0.185061
vt 0.397398 0.007491
vt 0.503739 0.186571
vt 0.364877 0.075021
vt 0.324753 0.181284
vt 0.571114 0.190476
vt 0.397398 0.142551
vt 0.400292 0.181037
vt 0.470471 0.159230
vt 0.480824 0.182176
vt 0.529072 0.112497
vt 0.307576 0.187959
vt 0.561735 0.185684
vt 0.529072 0.037545
vt 0.370330 0.185913
vt 0.470471 -0.009188
vt 0.434579 0.481204
vt 0.488223 0.487745
vt 0.325998 0.561979
vt 0.547420 0.509816
vt 0.401169 0.545473
vt 0.468925 0.547784
vt 0.540041 0.567736
vt 0.317883 0.504224
vt 0.380259 0.484946
vt 0.433108 0.545598
vt 0.465798 0.239900
vt 0.466521 0.553289
vt 0.465798 0.204585
vt 0.375631 0.640283
vt 0.497776 0.568290
vt 0.465798 0.169269
vt 0.704390 0.301346
vt 0.414087 0.625298
vt 0.669074 0.301346
vt 0.454166 0.624166
vt 0.633758 0.301346
vt 0.490479 0.637802
vt 0.367569 0.568357
vt 0.465798 0.310532
vt 0.598443 0.301346
vt 0.399337 0.551809
vt 0.465798 0.275216
vt 0.597875 0.239900
vt 0.397922 0.890483
vt 0.597875 0.204585
vt 0.400982 0.924005
vt 0.597875 0.169269
vt 0.704390 0.169269
vt 0.418291 0.275147
vt 0.421432 0.952038
vt 0.669074 0.169269
vt 0.408552 0.242411
vt 0.633758 0.169269
vt 0.386860 0.218393
vt 0.597875 0.310532
vt 0.598442 0.169269
vt 0.421432 0.829099
vt 0.355034 0.202864
vt 0.597875 0.275216
vt 0.401544 0.856951
vt 0.389341 0.890413
vt 0.393830 0.926706
vt 0.426822 0.276520
vt 0.416506 0.960652
vt 0.415090 0.238858
vt 0.391923 0.211843
vt 0.355080 0.193905
vt 0.417267 0.821508
vt 0.394355 0.854118
vt 0.345937 0.889981
vt 0.403823 0.082704
vt 0.354693 0.938457
vt 0.447435 0.087508
vt 0.470870 0.257230
vt 0.374389 0.982555
vt 0.470870 0.124600
vt 0.448045 0.213780
vt 0.456481 0.166049
vt 0.415104 0.180643
vt 0.376383 0.798792
vt 0.377896 0.157392
vt 0.355819 0.841729
vt 0.372876 0.113805
vt 0.420641 0.130386
vt 0.451251 0.075021
vt 0.631334 0.702703
vt 0.392476 0.163889
vt 0.631334 0.627751
vt 0.465550 0.180568
vt 0.631334 0.552798
vt 0.524150 0.133835
vt 0.631334 0.477845
vt 0.524150 0.058883
vt 0.631334 0.402892
vt 0.465550 0.012150
vt 0.631334 0.327940
vt 0.631334 0.852609
vt 0.392476 0.028829
vt 0.631334 0.777656
vt 0.359955 0.096359
vt 0.913064 0.702703
vt 0.390044 0.149562
vt 0.913064 0.627751
vt 0.357523 0.082032
vt 0.913064 0.552798
vt 0.390044 0.014502
vt 0.913064 0.477845
vt 0.463118 -0.002177
vt 0.913064 0.402892
vt 0.521718 0.044555
vt 0.913064 0.327940
vt 0.913064 0.852609
vt 0.521718 0.119508
vt 0.913064 0.777656
vt 0.463118 0.166240
vt 0.443898 0.082032
vt 0.446330 0.096359
s 0
f 7/14/1 1/1/1 8/16/1 14/29/1
f 5/9/2 6/11/2 13/26/2 12/24/2
f 3/5/3 4/7/3 11/22/3 10/20/3
f 1/1/4 2/3/4 9/18/4 8/16/4
f 6/12/5 7/14/5 14/29/5 13/27/5
f 4/7/6 5/9/6 12/24/6 11/22/6
f 2/3/7 3/5/7 10/20/7 9/18/7
f 11/23/8 12/25/8 15/31/8
f 9/19/8 10/21/8 15/31/8
f 14/30/8 8/17/8 15/31/8
f 12/25/8 13/28/8 15/31/8
f 10/21/8 11/23/8 15/31/8
f 8/17/8 9/19/8 15/31/8
f 13/28/8 14/30/8 15/31/8
f 1/2/9 7/15/9 16/32/9
f 6/13/9 5/10/9 16/32/9
f 4/8/9 3/6/9 16/32/9
f 2/4/9 1/2/9 16/32/9
f 7/15/9 6/13/9 16/32/9
f 5/10/9 4/8/9 16/32/9
f 3/6/9 2/4/9 16/32/9
f 19/37/10 20/40/10 27/53/10 26/51/10
f 17/33/11 18/35/11 25/50/11 24/49/11
f 22/44/12 23/47/12 30/57/12 29/56/12
f 20/40/13 21/42/13 28/54/13 27/53/13
f 18/35/14 19/38/14 26/52/14 25/50/14
f 23/47/15 17/33/15 24/49/15 30/57/15
f 21/42/16 22/45/16 29/55/16 28/54/16
f 30/57/17 24/49/17 31/58/17 37/74/17
f 28/54/18 29/55/18 36/70/18 35/68/18
f 26/51/19 27/53/19 34/66/19 33/62/19
f 24/49/20 25/50/20 32/60/20 31/58/20
f 29/56/21 30/57/21 37/74/21 36/71/21
f 27/53/22 28/54/22 35/68/22 34/66/22
f 25/50/23 26/52/23 33/63/23 32/60/23
f 36/72/12 37/75/12 44/92/12 43/88/12
f 34/67/13 35/69/13 42/86/13 41/84/13
f 32/61/14 33/64/14 40/80/14 39/78/14
f 37/75/15 31/59/15 38/76/15 44/92/15
f 35/69/16 36/73/16 43/89/16 42/86/16
f 33/65/10 34/67/10 41/84/10 40/81/10
f 31/59/11 32/61/11 39/78/11 38/76/11
f 40/82/24 41/85/24 48/98/24 47/96/24
f 38/77/24 39/79/24 46/95/24 45/94/24
f 43/90/24 44/93/24 51/102/24 50/101/24
f 41/85/25 42/87/25 49/99/25 48/98/25
f 39/79/24 40/83/24 47/97/24 46/95/24
f 44/93/24 38/77/24 45/94/24 51/102/24
f 42/87/24 43/91/24 50/100/24 49/99/24
f 51/102/15 45/94/15 52/103/15 58/115/15
f 49/99/16 50/100/16 57/114/16 56/112/16
f 47/96/10 48/98/10 55/110/10 54/107/10
f 45/94/11 46/95/11 53/105/11 52/103/11
f 50/101/12 51/102/12 58/115/12 57/113/12
f 48/98/13 49/99/13 56/112/13 55/110/13
f 46/95/14 47/97/14 54/108/14 53/105/14
f 57/114/26 58/116/26 59/117/26
f 55/111/26 56/112/26 59/117/26
f 53/106/26 54/109/26 59/117/26
f 58/116/26 52/104/26 59/117/26
f 56/112/26 57/114/26 59/117/26
f 54/109/26 55/111/26 59/117/26
f 52/104/26 53/106/26 59/117/26
f 22/46/24 21/43/24 60/118/24
f 20/41/24 19/39/24 60/118/24
f 18/36/24 17/34/24 60/118/24
f 23/48/24 22/46/24 60/118/24
f 21/43/24 20/41/24 60/118/24
f 19/39/24 18/36/24 60/118/24
f 17/34/24 23/48/24 60/118/24
f 67/132/27 61/119/27 68/134/27 74/147/27
f 65/127/28 66/129/28 73/144/28 72/142/28
f 63/123/29 64/125/29 71/140/29 70/138/29
f 61/119/30 62/121/30 69/136/30 68/134/30
f 66/130/31 67/132/31 74/147/31 73/145/31
f 64/125/32 65/127/32 72/142/32 71/140/32
f 62/121/33 63/123/33 70/138/33 69/136/33
f 71/141/34 72/143/34 75/149/34
f 69/137/34 70/139/34 75/149/34
f 74/148/34 68/135/34 75/149/34
f 72/143/34 73/146/34 75/149/34
f 70/139/34 71/141/34 75/149/34
f 68/135/34 69/137/34 75/149/34
f 73/146/34 74/148/34 75/149/34
f 61/120/35 67/133/35 76/150/35
f 66/131/35 65/128/35 76/150/35
f 64/126/35 63/124/35 76/150/35
f 62/122/35 61/120/35 76/150/35
f 67/133/35 66/131/35 76/150/35
f 65/128/35 64/126/35 76/150/35
f 63/124/35 62/122/35 76/150/35
