# Blender 3.3.0
# www.blender.org
o carta
v -0.022270 0.000000 0.244266
v 0.215633 0.000000 0.116893
v -0.215633 0.000000 -0.116893
v 0.022270 0.000000 -0.244266
v 0.212358 0.000000 0.133984
v 0.414308 0.000000 0.172594
v 0.270971 0.000000 -0.172594
v 0.472921 0.000000 -0.133984
v 0.111830 -0.019781 -0.149783
v 0.127138 -0.027459 -0.094716
v 0.129387 0.024428 -0.113782
v 0.155179 0.012975 -0.140154
v 0.181985 -0.002132 -0.072664
v 0.188836 0.028251 -0.116922
v 0.201159 -0.018372 -0.164831
v 0.211717 -0.022725 -0.096029
v -0.206576 -0.020120 0.100648
v -0.163386 -0.026027 0.092430
v -0.177857 0.013886 0.089489
v -0.196427 0.005076 0.068033
v -0.142978 -0.006545 0.051795
v -0.176468 0.016827 0.043716
v -0.212407 -0.019037 0.031210
v -0.158990 -0.022385 0.027510
v 0.523333 0.000000 0.084197
v 0.714182 0.000000 0.007704
v 0.407210 0.000000 -0.205528
v 0.598058 0.000000 -0.282021
v 0.736128 0.000000 -0.042591
v 0.863391 0.000000 -0.032194
v 0.751912 0.000000 -0.235788
v 0.958895 -0.019781 -0.006524
v 0.841607 0.000000 -0.228459
v 0.877308 0.000000 -0.202531
v 0.903526 -0.027459 0.007650
v 0.922541 0.024428 0.010290
v 0.924460 0.028251 0.069791
v 0.972106 -0.018372 0.083095
v 1.267950 0.000000 -0.226053
v 1.078721 0.000000 -0.350463
v 0.948379 0.012975 0.036618
v 0.880352 -0.002132 0.062032
v 1.079086 0.000000 0.061213
v 0.889857 0.000000 -0.063197
v 0.903102 -0.022725 0.092238
vn -0.0000 1.0000 -0.0000
vn -0.9478 0.1453 0.2838
vn -0.3633 0.6708 -0.6466
vn -0.4772 0.3212 0.8180
vn -0.0812 0.8827 -0.4628
vn -0.0234 0.8259 0.5633
vn 0.1345 0.7272 -0.6731
vn 0.7211 0.5141 0.4645
vn 0.9231 0.3658 -0.1185
vn 0.2041 0.1453 0.9681
vn -0.6745 0.6708 0.3083
vn 0.7755 0.3212 0.5435
vn -0.4679 0.8827 0.0425
vn 0.5595 0.8259 0.0700
vn -0.6596 0.7272 -0.1900
vn 0.5228 0.5141 -0.6800
vn -0.0415 0.3658 -0.9298
vn -0.6539 -0.6708 0.3499
vn 0.2642 -0.1453 0.9534
vn 0.8080 -0.3212 0.4939
vn -0.4643 -0.8827 0.0717
vn 0.5627 -0.8259 0.0349
vn -0.6702 -0.7272 -0.1483
vn 0.4792 -0.5141 -0.7114
vn -0.0995 -0.3658 -0.9254
vt 0.036671 0.539684
vt 0.358973 0.539684
vt 0.036671 0.946687
vt 0.358973 0.946687
vt 0.688169 0.550565
vt 0.953568 0.550565
vt 0.688169 0.953464
vt 0.953568 0.953464
vt 0.953805 0.893875
vt 0.808961 0.891954
vt 0.876225 0.805858
vt 0.938406 0.760645
vt 0.749325 0.742587
vt 0.863622 0.716001
vt 0.953805 0.609664
vt 0.774047 0.624711
vt 0.416117 0.281413
vt 0.304698 0.279935
vt 0.356440 0.213708
vt 0.404271 0.178928
vt 0.258824 0.165038
vt 0.346745 0.144587
vt 0.416117 0.062789
vt 0.277841 0.074363
vt 0.730858 0.037692
vt 0.969473 0.037692
vt 0.730858 0.399931
vt 0.969473 0.399931
vt 0.502445 0.005790
vt 0.506854 0.277697
vt -0.002386 0.011262
vt 0.635372 0.289714
vt 0.000722 0.202901
vt 0.061756 0.282522
vt 0.631915 0.434529
vt 0.546537 0.366356
vt 0.456552 0.378006
vt 0.351177 0.286700
vt 0.692628 0.948824
vt 0.390981 0.948824
vt 0.501986 0.303699
vt 0.481924 0.492578
vt 0.692628 0.606844
vt 0.390981 0.606844
vt 0.364317 0.466607
s 0
f 1/1/1 2/2/1 4/4/1 3/3/1
f 5/5/1 6/6/1 8/8/1 7/7/1
f 9/9/2 10/10/2 11/11/2
f 9/9/3 11/11/3 12/12/3
f 11/11/4 10/10/4 13/13/4
f 12/12/5 11/11/5 14/14/5
f 11/11/6 13/13/6 14/14/6
f 12/12/7 14/14/7 15/15/7
f 14/14/8 13/13/8 16/16/8
f 15/15/9 14/14/9 16/16/9
f 17/17/10 18/18/10 19/19/10
f 17/17/11 19/19/11 20/20/11
f 19/19/12 18/18/12 21/21/12
f 20/20/13 19/19/13 22/22/13
f 19/19/14 21/21/14 22/22/14
f 20/20/15 22/22/15 23/23/15
f 22/22/16 21/21/16 24/24/16
f 23/23/17 22/22/17 24/24/17
f 25/25/1 26/26/1 28/28/1 27/27/1
f 29/29/1 30/30/1 34/34/1 33/33/1 31/31/1
f 32/32/18 41/41/18 36/36/18
f 32/32/19 36/36/19 35/35/19
f 36/36/20 42/42/20 35/35/20
f 41/41/21 37/37/21 36/36/21
f 36/36/22 37/37/22 42/42/22
f 41/41/23 38/38/23 37/37/23
f 37/37/24 45/45/24 42/42/24
f 38/38/25 45/45/25 37/37/25
f 44/44/1 43/43/1 39/39/1 40/40/1
