# Blender 3.1.0
# www.blender.org
o comodino 3
v -0.883599 0.000000 0.424541
v -0.883599 0.901778 0.424541
v -0.883599 0.000000 -0.424541
v -0.883599 0.901778 -0.424541
v 0.883599 0.000000 0.424541
v 0.883599 0.901778 0.424541
v 0.883599 0.000000 -0.424541
v 0.883599 0.901778 -0.424541
v -0.883599 0.830386 0.424541
v -0.883599 0.830386 -0.424541
v 0.883599 0.830386 -0.424541
v 0.883599 0.830386 0.424541
v -0.883599 0.830386 0.457981
v -0.883599 0.901778 0.457981
v 0.883599 0.901778 0.457981
v 0.883599 0.830386 0.457981
v -0.883599 0.074810 -0.424541
v 0.883599 0.074810 -0.424541
v 0.883599 0.074810 0.424541
v -0.883599 0.074810 0.424541
v 0.883599 0.074810 0.466917
v 0.883599 0.000000 0.466917
v -0.883599 0.000000 0.466917
v -0.883599 0.074810 0.466917
v 0.000000 0.000000 -0.424541
v 0.000000 0.901778 -0.424541
v 0.000000 0.000000 0.424541
v 0.000000 0.901778 0.424541
v 0.000000 0.830386 0.424541
v 0.000000 0.830386 -0.424541
v 0.000000 0.901778 0.457981
v 0.000000 0.830386 0.457981
v 0.000000 0.074810 -0.424541
v 0.000000 0.074810 0.424541
v 0.000000 0.000000 0.466917
v 0.000000 0.074810 0.466917
vn -1.0000 -0.0000 -0.0000
vn -0.0000 -0.0000 -1.0000
vn 1.0000 -0.0000 -0.0000
vn -0.0000 1.0000 -0.0000
vn -0.0000 -1.0000 -0.0000
vn -0.0000 -0.0000 1.0000
vt 0.219661 0.605829
vt 0.204757 0.871078
vt 0.225286 0.605829
vt 0.357852 0.700591
vt 0.239826 0.592207
vt 0.110974 0.605829
vt 0.004480 0.605829
vt 0.249165 0.700591
vt 0.239827 0.483521
vt 0.357852 0.474381
vt 0.219661 0.818617
vt 0.149809 0.851114
vt 0.204757 0.625719
vt 0.013620 0.592209
vt 0.249165 0.474381
vt 0.004480 0.832039
vt 0.110974 0.818617
vt 0.013619 0.483520
vt 0.690699 0.663882
vt 0.219661 0.712123
vt 0.248965 0.592207
vt 0.229768 0.605829
vt 0.248965 0.483521
vt 0.110974 0.712123
vt 0.110774 0.605829
vt 0.239827 0.474383
vt 0.013619 0.474381
vt 0.004480 0.483520
vt 0.728008 0.610442
vt 0.110774 0.832039
vt 0.925069 0.610442
vt 0.229768 0.832030
vt 0.004481 0.592210
vt 0.320469 0.668308
vt 0.239827 0.605626
vt 0.248965 0.596487
vt 0.225487 0.605829
vt 0.239826 0.596487
vt 0.013620 0.596491
vt 0.225487 0.832030
vt 0.004481 0.596490
vt 0.013620 0.605629
vt 0.110974 0.615405
vt 0.014056 0.605829
vt 0.728008 0.785802
vt 0.014056 0.832039
vt 0.110974 0.809041
vt 0.925069 0.785802
vt 0.219661 0.809041
vt 0.204757 0.635296
vt 0.320469 0.977956
vt 0.690699 0.986288
vt 0.219661 0.615405
vt 0.204757 0.861502
vt 0.199332 0.635296
vt 0.239389 0.832040
vt 0.137881 0.851114
vt 0.199332 0.625719
vt 0.248965 0.832040
vt 0.248965 0.605829
vt 0.199332 0.871078
vt 0.219861 0.605829
vt 0.239389 0.605829
vt 0.199332 0.861502
vt 0.004480 0.718934
vt 0.249165 0.587486
vt 0.126723 0.483520
vt 0.149809 0.602413
vt 0.225286 0.718933
vt 0.357852 0.587486
vt 0.126723 0.592208
vt 0.313667 0.663882
vt 0.229768 0.718930
vt 0.682583 0.668308
vt 0.110774 0.718934
vt 0.126723 0.474382
vt 0.126723 0.596489
vt 0.225487 0.718930
vt 0.126723 0.605627
vt 0.014056 0.718934
vt 0.313667 0.986288
vt 0.204757 0.748399
vt 0.682583 0.977956
vt 0.137881 0.602413
vt 0.248965 0.718935
vt 0.219862 0.718933
vt 0.199332 0.748399
vt 0.239389 0.718935
s 0
f 9/21/1 2/5/1 4/9/1 10/23/1
f 30/76/2 26/67/2 8/18/2 11/27/2
f 11/28/3 8/18/3 6/14/3 12/33/3
f 28/71/4 2/5/4 14/38/4 31/77/4
f 25/66/5 7/15/5 5/10/5 27/70/5
f 26/67/4 4/9/4 2/5/4 28/71/4
f 34/81/6 29/72/6 9/19/6 20/52/6
f 18/45/3 11/29/3 12/31/3 19/48/3
f 33/80/2 30/75/2 11/30/2 18/46/2
f 20/53/1 9/20/1 10/24/1 17/43/1
f 32/79/6 31/77/6 14/38/6 13/35/6
f 29/73/5 12/32/5 16/40/5 32/78/5
f 2/5/1 9/21/1 13/36/1 14/38/1
f 12/33/3 6/14/3 15/39/3 16/41/3
f 1/1/1 20/53/1 17/43/1 3/6/1
f 25/65/2 33/80/2 18/46/2 7/16/2
f 7/17/3 18/47/3 19/49/3 5/11/3
f 27/68/5 5/12/5 22/57/5 35/84/5
f 35/85/6 36/88/6 24/63/6 23/60/6
f 34/82/4 20/54/4 24/64/4 36/87/4
f 5/13/3 19/50/3 21/55/3 22/58/3
f 20/54/1 1/2/1 23/61/1 24/64/1
f 19/50/4 34/82/4 36/87/4 21/55/4
f 22/59/6 21/56/6 36/88/6 35/85/6
f 1/3/5 27/69/5 35/86/5 23/62/5
f 3/7/2 17/44/2 33/80/2 25/65/2
f 9/22/5 29/73/5 32/78/5 13/37/5
f 16/42/6 15/39/6 31/77/6 32/79/6
f 17/44/2 10/25/2 30/75/2 33/80/2
f 19/51/6 12/34/6 29/74/6 34/83/6
f 8/18/4 26/67/4 28/71/4 6/14/4
f 3/8/5 25/66/5 27/70/5 1/4/5
f 6/14/4 28/71/4 31/77/4 15/39/4
f 10/26/2 4/9/2 26/67/2 30/76/2
