# Blender 3.1.0
# www.blender.org
o comodino
v 0.393823 0.311192 0.287459
v 0.370089 0.311192 0.311192
v 0.370089 0.311192 -0.311192
v 0.393823 0.311192 -0.287459
v -0.393823 0.311192 -0.287459
v -0.370089 0.311192 -0.311192
v -0.393823 0.311192 0.287459
v -0.370089 0.311192 0.311192
v -0.370089 0.000000 0.287459
v -0.370089 0.023733 0.311192
v -0.393823 0.023733 0.287459
v -0.370089 0.598650 0.311192
v -0.370089 0.622384 0.287459
v -0.393823 0.598650 0.287459
v -0.370089 0.000000 -0.287459
v -0.393823 0.023733 -0.287459
v -0.370089 0.023733 -0.311192
v -0.370089 0.622384 -0.287459
v -0.370089 0.598650 -0.311192
v -0.393823 0.598650 -0.287459
v 0.370089 0.000000 0.287459
v 0.393823 0.023733 0.287459
v 0.370089 0.023733 0.311192
v 0.370089 0.622384 0.287459
v 0.370089 0.598650 0.311192
v 0.393823 0.598650 0.287459
v 0.370089 0.000000 -0.287459
v 0.370089 0.023733 -0.311192
v 0.393823 0.023733 -0.287459
v 0.370089 0.622384 -0.287459
v 0.393823 0.598650 -0.287459
v 0.370089 0.598650 -0.311192
v 0.354911 0.326370 0.311192
v 0.354911 0.583472 0.311192
v -0.354911 0.583472 0.311192
v -0.354911 0.326370 0.311192
v 0.354911 0.038911 0.311192
v 0.354911 0.296014 0.311192
v -0.354911 0.296014 0.311192
v -0.354911 0.038911 0.311192
v 0.354911 0.583472 0.333808
v 0.354911 0.326370 0.333808
v -0.354911 0.326370 0.333808
v -0.354911 0.583472 0.333808
v 0.354911 0.296014 0.333808
v 0.354911 0.038911 0.333808
v -0.354911 0.038911 0.333808
v -0.354911 0.296014 0.333808
v 0.073720 0.454612 0.333808
v 0.073720 0.401209 0.333808
v -0.073720 0.401209 0.333808
v -0.073720 0.454612 0.333808
v 0.073720 0.188451 0.333808
v 0.073720 0.135048 0.333808
v -0.073720 0.135048 0.333808
v -0.073720 0.188451 0.333808
v 0.073720 0.454612 0.358562
v 0.073720 0.401209 0.358562
v -0.073720 0.401209 0.358562
v -0.073720 0.454612 0.358562
v 0.073720 0.188451 0.358562
v 0.073720 0.135048 0.358562
v -0.073720 0.135048 0.358562
v -0.073720 0.188451 0.358562
vn -0.0000 -1.0000 -0.0000
vn 0.9239 -0.0000 -0.3827
vn 0.8756 0.3416 -0.3416
vn 0.8756 0.3416 0.3416
vn 0.9239 -0.0000 0.3827
vn 0.3416 0.3416 0.8756
vn 0.3827 -0.0000 0.9239
vn 0.3416 0.8756 -0.3416
vn -0.3416 0.8756 -0.3416
vn -0.3416 0.8756 0.3416
vn 0.3416 0.8756 0.3416
vn -0.9239 -0.0000 0.3827
vn -0.8756 0.3416 0.3416
vn -0.8756 0.3416 -0.3416
vn -0.9239 -0.0000 -0.3827
vn -0.3827 -0.0000 -0.9239
vn -0.3416 0.3416 -0.8756
vn 0.3416 0.3416 -0.8756
vn 0.3827 -0.0000 -0.9239
vn -0.3416 -0.8756 0.3416
vn -0.3416 -0.3416 0.8756
vn -0.8756 -0.3416 0.3416
vn -0.3416 0.3416 0.8756
vn -0.3416 -0.8756 -0.3416
vn -0.8756 -0.3416 -0.3416
vn -0.3416 -0.3416 -0.8756
vn 0.3416 -0.8756 0.3416
vn 0.8756 -0.3416 0.3416
vn 0.3416 -0.3416 0.8756
vn 0.3416 -0.8756 -0.3416
vn 0.3416 -0.3416 -0.8756
vn 0.8756 -0.3416 -0.3416
vn -0.3827 -0.0000 0.9239
vn -1.0000 -0.0000 -0.0000
vn -0.0000 -0.0000 1.0000
vn -0.0000 1.0000 -0.0000
vn 1.0000 -0.0000 -0.0000
vt 0.462333 0.796317
vt 0.462547 0.808034
vt 0.311748 0.847131
vt 0.607157 0.703911
vt 0.193954 0.581837
vt 0.607157 0.715385
vt 0.458301 0.597086
vt 0.198214 0.848717
vt 0.488473 0.927830
vt 0.198034 0.836955
vt 0.484229 0.710386
vt 0.483664 0.700951
vt 0.564792 0.847131
vt 0.373199 0.712091
vt 0.379147 0.701105
vt 0.564792 0.945403
vt 0.383472 0.710279
vt 0.593885 0.708849
vt 0.564793 0.748859
vt 0.600064 0.720694
vt 0.589948 0.719397
vt 0.302637 0.832161
vt 0.374907 0.927830
vt 0.294106 0.841154
vt 0.386896 0.927830
vt 0.291475 0.830263
vt 0.606900 0.927830
vt 0.090899 0.834563
vt 0.102024 0.832119
vt 0.595130 0.927830
vt 0.099803 0.843361
vt 0.355655 0.794955
vt 0.105985 0.713064
vt 0.366693 0.792361
vt 0.364620 0.803572
vt 0.109283 0.702260
vt 0.311748 0.945403
vt 0.566746 0.791841
vt 0.852506 0.715761
vt 0.558190 0.800775
vt 0.849082 0.704120
vt 0.311748 0.748859
vt 0.555605 0.789895
vt 0.498947 0.709648
vt 0.305846 0.581982
vt 0.339638 0.602302
vt 0.101047 0.927830
vt 0.508884 0.703911
vt 0.294502 0.581837
vt 0.508884 0.715385
vt 0.351844 0.601323
vt 0.862380 0.927830
vt 0.715366 0.709648
vt 0.075016 0.585917
vt 0.570677 0.597315
vt 0.559321 0.597086
vt 0.705429 0.715385
vt 0.087265 0.585162
vt 0.705429 0.703911
vt 0.316937 0.841942
vt 0.738342 0.690355
vt 0.316937 0.754048
vt 0.743223 0.580438
vt 0.559604 0.754048
vt 0.983773 0.580438
vt 0.978893 0.690355
vt 0.559604 0.841942
vt 0.316937 0.940214
vt 0.983773 0.690679
vt 0.316937 0.852320
vt 0.978893 0.800596
vt 0.559603 0.852320
vt 0.738342 0.800596
vt 0.559604 0.940214
vt 0.743223 0.690679
vt 0.753736 0.588478
vt 0.747670 0.680819
vt 0.968379 0.682315
vt 0.974446 0.589974
vt 0.968379 0.792556
vt 0.974446 0.700215
vt 0.753736 0.698720
vt 0.747670 0.791061
vt 0.644437 0.614440
vt 0.652900 0.605977
vt 0.652900 0.587720
vt 0.644437 0.579257
vt 0.585570 0.587720
vt 0.594032 0.579257
vt 0.594032 0.614440
vt 0.585570 0.605977
vt 0.644437 0.578933
vt 0.652900 0.570470
vt 0.644437 0.543750
vt 0.652900 0.552213
vt 0.585570 0.552213
vt 0.594032 0.543750
vt 0.585570 0.570470
vt 0.594032 0.578933
vt 0.644437 0.605977
vt 0.644437 0.587720
vt 0.594032 0.587720
vt 0.594032 0.605977
vt 0.644437 0.570470
vt 0.644437 0.552213
vt 0.594032 0.552213
vt 0.594032 0.570470
s 1
f 36/66/1 33/61/1 42/77/1 43/78/1
f 4/7/2 31/56/3 26/43/4 1/1/5
f 25/40/6 2/2/7 1/1/5 26/43/4
f 30/52/8 18/27/9 13/20/10 24/39/11
f 7/11/12 14/21/13 20/30/14 5/9/15
f 6/10/16 19/29/17 32/58/18 3/5/19
f 9/14/20 10/15/21 11/17/22
f 12/18/23 13/20/10 14/21/13
f 15/22/24 16/24/25 17/26/26
f 18/28/9 19/29/17 20/31/14
f 21/32/27 22/34/28 23/35/29
f 24/38/11 25/40/6 26/43/4
f 27/44/30 28/48/31 29/50/32
f 30/53/8 31/57/3 32/59/18
f 15/23/24 9/14/20 11/17/22 16/25/25
f 8/12/33 12/18/23 14/21/13 7/11/12
f 13/20/10 18/27/9 20/30/14 14/21/13
f 6/10/16 17/26/26 16/24/25 5/8/15
f 27/45/30 15/22/24 17/26/26 28/49/31
f 18/28/9 30/54/8 32/58/18 19/29/17
f 4/6/2 29/50/32 28/48/31 3/4/19
f 21/32/27 27/46/30 29/51/32 22/34/28
f 30/55/8 24/38/11 26/43/4 31/56/3
f 2/2/7 23/35/29 22/34/28 1/1/5
f 9/14/20 21/33/27 23/36/29 10/15/21
f 24/39/11 13/20/10 12/18/23 25/41/6
f 15/23/24 27/47/30 21/33/27 9/14/20
f 31/57/3 4/6/2 3/4/19 32/59/18
f 19/29/17 6/10/16 5/8/15 20/31/14
f 10/15/21 8/12/33 7/11/12 11/17/22
f 17/26/26 6/10/16 3/5/19 28/49/31
f 11/17/22 7/11/12 5/9/15 16/25/25
f 29/51/32 4/7/2 1/1/5 22/34/28
f 35/65/34 36/66/34 43/78/34 44/79/34
f 2/3/7 25/42/6 34/62/35 33/60/35
f 25/42/6 12/19/23 35/64/35 34/62/35
f 12/19/23 8/13/33 36/67/35 35/64/35
f 8/13/33 2/3/7 33/60/35 36/67/35
f 23/37/29 2/3/7 38/70/35 37/68/35
f 2/3/7 8/13/33 39/72/35 38/70/35
f 8/13/33 10/16/21 40/74/35 39/72/35
f 10/16/21 23/37/29 37/68/35 40/74/35
f 42/77/35 41/76/35 44/79/35 43/78/35
f 46/81/35 45/80/35 48/83/35 47/82/35
f 38/71/36 39/73/36 48/83/36 45/80/36
f 37/69/37 38/71/37 45/80/37 46/81/37
f 34/63/36 35/65/36 44/79/36 41/76/36
f 39/73/34 40/75/34 47/82/34 48/83/34
f 33/61/37 34/63/37 41/76/37 42/77/37
f 40/75/1 37/69/1 46/81/1 47/82/1
f 58/101/35 57/100/35 60/103/35 59/102/35
f 62/105/35 61/104/35 64/107/35 63/106/35
f 49/84/36 52/90/36 60/103/36 57/100/36
f 50/86/37 49/85/37 57/100/37 58/101/37
f 56/98/34 55/96/34 63/106/34 64/107/34
f 55/97/1 54/94/1 62/105/1 63/106/1
f 52/91/34 51/88/34 59/102/34 60/103/34
f 51/89/1 50/87/1 58/101/1 59/102/1
f 53/92/36 56/99/36 64/107/36 61/104/36
f 54/95/37 53/93/37 61/104/37 62/105/37
