# Blender 3.1.0
# www.blender.org
o divano
v 0.998064 0.048053 -0.425172
v -0.998064 0.048053 -0.425172
v -0.998064 0.048053 -0.047531
v 0.998064 0.048053 -0.047531
v -0.998064 0.613401 -0.425172
v 0.998064 0.613401 -0.425172
v -0.998064 0.048053 0.709055
v 0.998064 0.048053 0.709055
v 1.068020 -0.012714 0.664369
v 1.068020 0.108827 0.664369
v 1.068020 -0.012714 0.542829
v 1.068020 0.108827 0.542829
v 1.189561 -0.012714 0.664369
v 1.189561 0.108827 0.664369
v 1.189561 -0.012714 0.542829
v 1.189561 0.108827 0.542829
v -1.179802 -0.012714 0.664369
v -1.179802 0.108827 0.664369
v -1.179802 -0.012714 0.542829
v -1.179802 0.108827 0.542829
v -1.058261 -0.012714 0.664369
v -1.058261 0.108827 0.664369
v -1.058261 -0.012714 0.542829
v -1.058261 0.108827 0.542829
v 1.068020 -0.012714 -0.236908
v 1.068020 0.108827 -0.236908
v 1.068020 -0.012714 -0.358449
v 1.068020 0.108827 -0.358449
v 1.189561 -0.012714 -0.236908
v 1.189561 0.108827 -0.236908
v 1.189561 -0.012714 -0.358449
v 1.189561 0.108827 -0.358449
v -1.179802 -0.012714 -0.236908
v -1.179802 0.108827 -0.236908
v -1.179802 -0.012714 -0.358449
v -1.179802 0.108827 -0.358449
v -1.058261 -0.012714 -0.236908
v -1.058261 0.108827 -0.236908
v -1.058261 -0.012714 -0.358449
v -1.058261 0.108827 -0.358449
v -0.998064 1.023842 -0.425172
v -0.998064 1.133377 -0.379801
v 0.998064 1.023842 -0.425172
v 0.998064 1.133377 -0.379801
v 0.998064 1.178748 -0.202437
v 0.998064 1.023842 -0.047531
v -0.998064 1.023842 -0.047531
v -0.998064 1.178748 -0.202437
v -1.171760 0.048053 -0.047531
v -1.264980 0.141273 -0.047531
v -1.237676 0.075357 -0.047531
v -1.264980 0.141273 -0.331953
v -1.171760 0.048053 -0.425172
v -1.237676 0.075357 -0.397869
v 1.264980 0.141273 -0.047531
v 1.171760 0.048053 -0.047531
v 1.237676 0.075357 -0.047531
v 1.264980 0.141273 -0.331953
v 1.171760 0.048053 -0.425172
v 1.237676 0.075356 -0.397869
v -1.171760 0.613401 -0.047531
v -1.264980 0.520181 -0.140750
v -1.237676 0.586097 -0.074834
v -1.264980 0.613401 -0.331953
v -1.171760 0.613401 -0.425172
v -1.237676 0.613401 -0.397869
v 1.171760 0.613401 -0.425172
v 1.264980 0.613401 -0.331953
v 1.237676 0.613401 -0.397869
v 1.264980 0.520181 -0.140750
v 1.171760 0.613401 -0.047531
v 1.237676 0.586097 -0.074834
v 1.264980 0.141273 0.615835
v 1.171760 0.048053 0.709055
v 1.237676 0.075357 0.681751
v -1.264980 0.141273 0.615835
v -1.171760 0.048053 0.709055
v -1.237676 0.075356 0.681751
v -1.264980 1.005300 -0.140750
v -1.171760 1.023842 -0.047531
v -1.237676 1.018411 -0.074834
v -1.264980 1.085528 -0.220979
v -1.171760 1.178748 -0.202437
v -1.237676 1.151444 -0.207868
v -1.264980 1.005300 -0.331953
v -1.171760 1.023842 -0.425172
v -1.237676 1.018411 -0.397869
v -1.264980 1.062030 -0.308454
v -1.171760 1.133377 -0.379801
v -1.237676 1.112480 -0.358904
v 1.264980 1.085528 -0.220979
v 1.171760 1.178748 -0.202437
v 1.237676 1.151444 -0.207868
v 1.264980 1.005300 -0.140750
v 1.171760 1.023842 -0.047531
v 1.237676 1.018411 -0.074834
v 1.264980 1.005300 -0.331953
v 1.171760 1.023842 -0.425172
v 1.237676 1.018411 -0.397869
v 1.264980 1.062030 -0.308454
v 1.171760 1.133377 -0.379801
v 1.237676 1.112480 -0.358904
v 0.979791 0.548573 -0.047531
v 1.065418 0.613401 -0.047531
v 0.998064 0.680754 -0.047531
v 1.012439 0.594413 -0.047531
v -1.065418 0.613401 -0.047531
v -0.979791 0.548573 -0.047531
v -0.998064 0.680754 -0.047531
v -1.012439 0.594413 -0.047531
v 0.998064 0.536046 0.709055
v 1.007629 0.583358 0.679193
v 0.984637 0.542201 0.689856
v 1.032403 0.590777 0.687346
v -0.998064 0.536046 0.709055
v -1.007629 0.583358 0.679193
v -1.032403 0.590777 0.687346
v -0.984637 0.542201 0.689856
v 1.264980 0.441993 0.615835
v 1.264980 0.497280 0.593702
v 1.171760 0.536214 0.709055
v 1.171760 0.590793 0.687316
v 1.237676 0.508450 0.681751
v 1.237676 0.563355 0.659807
v -1.264980 0.441993 0.615835
v -1.264980 0.497280 0.593702
v -1.171760 0.536214 0.709055
v -1.171760 0.590793 0.687316
v -1.237676 0.508450 0.681751
v -1.237676 0.563355 0.659807
v 0.978703 0.048053 -0.425172
v -0.978703 0.048053 -0.425172
v -0.977772 0.048053 -0.047531
v 0.977772 0.048053 -0.047531
v 0.977472 0.416684 -0.047531
v -0.977472 0.416684 -0.047531
v -0.979264 0.613401 -0.425172
v 0.979264 0.613401 -0.425172
v -0.976395 0.048053 0.709055
v 0.976395 0.048053 0.709055
v -0.979500 1.023842 -0.425172
v -0.979428 1.133377 -0.379801
v 0.979500 1.023842 -0.425172
v 0.979428 1.133377 -0.379801
v 0.978317 1.178748 -0.202437
v 0.975567 1.023842 -0.047531
v -0.975567 1.023842 -0.047531
v -0.978317 1.178748 -0.202437
v 0.978138 0.340775 0.709055
v 0.977527 0.393895 0.689378
v -0.978138 0.340775 0.709055
v -0.977527 0.393895 0.689378
vn -0.0000 0.9688 -0.2478
vn -0.0000 0.3827 -0.9239
vn -0.0000 -0.0000 1.0000
vn -0.0000 -0.0000 -1.0000
vn -0.0000 -1.0000 -0.0000
vn 1.0000 -0.0000 -0.0000
vn 0.9280 0.3724 0.0116
vn -0.0001 0.9995 0.0308
vn -0.3827 -0.0000 0.9239
vn -0.0000 0.7071 0.7071
vn -1.0000 -0.0000 -0.0000
vn -0.3934 0.9189 0.0284
vn 0.9994 0.0336 0.0040
vn -0.0000 0.3474 0.9377
vn 0.9128 0.3951 -0.1035
vn -0.3827 -0.9239 -0.0000
vn -0.9239 -0.3827 -0.0000
vn -0.3827 -0.0000 -0.9239
vn -0.9239 -0.0000 -0.3827
vn 0.9239 -0.0000 -0.3827
vn 0.3827 -0.0000 -0.9239
vn 0.3827 -0.9239 -0.0000
vn 0.9239 -0.3827 -0.0000
vn 0.0001 0.9995 0.0308
vn -0.9994 0.0336 0.0040
vn -0.9280 0.3724 0.0116
vn 0.3827 -0.0000 0.9239
vn 0.9239 -0.0000 0.3827
vn -0.9239 -0.0000 0.3827
vn 0.3579 0.9044 -0.2323
vn -0.9128 0.3951 -0.1035
vn 0.9239 0.1464 -0.3536
vn 0.3827 0.3536 -0.8536
vn -0.3313 0.6672 0.6672
vn 0.8985 0.3104 0.3104
vn -0.3579 0.9044 -0.2323
vn -0.9239 0.1464 -0.3536
vn -0.3827 0.3536 -0.8536
vn 0.3313 0.6672 0.6672
vn -0.8421 0.5393 0.0064
vn 0.8421 0.5393 0.0064
vn -0.5047 0.5314 0.6803
vn 0.3228 0.9464 0.0135
vn 0.3934 0.9189 0.0284
vn 0.5047 0.5314 0.6803
vn 0.8993 0.0702 0.4317
vn 0.4761 0.3259 0.8168
vn 0.9530 0.1125 0.2813
vn -0.4761 0.3259 0.8168
vn -0.9530 0.1125 0.2813
vn 0.0001 0.3694 0.9293
vn -0.0001 0.3694 0.9293
vn -0.0000 0.9995 0.0309
vn -0.8993 0.0702 0.4317
vn -0.8985 0.3104 0.3104
vn -0.3228 0.9464 0.0135
vt 0.491666 0.054400
vt 0.250012 0.493750
vt 0.491657 0.495367
vt 0.250012 0.054224
vt 0.166859 0.054224
vt 0.166859 0.493749
vt 0.367093 0.494646
vt 0.367008 0.054882
vt 0.000268 0.054224
vt 0.845734 0.496353
vt 0.000268 0.493749
vt 0.845797 0.933835
vt 0.519514 0.763108
vt 0.601842 0.709584
vt 0.546276 0.763108
vt 0.519514 0.789870
vt 0.628604 0.709584
vt 0.546276 0.789870
vt 0.519514 0.736346
vt 0.601842 0.736346
vt 0.546276 0.736346
vt 0.519514 0.816632
vt 0.519514 0.709584
vt 0.628604 0.736346
vt 0.546276 0.816632
vt 0.546276 0.709584
vt 0.492217 0.763108
vt 0.546811 0.709584
vt 0.518979 0.763108
vt 0.492217 0.789870
vt 0.573573 0.709584
vt 0.518979 0.789870
vt 0.492217 0.736346
vt 0.546811 0.736346
vt 0.518979 0.736346
vt 0.492217 0.816632
vt 0.492217 0.709584
vt 0.573573 0.736346
vt 0.518979 0.816632
vt 0.518979 0.709584
vt 0.710495 0.620436
vt 0.683198 0.709584
vt 0.683733 0.620436
vt 0.710495 0.593674
vt 0.683198 0.736346
vt 0.683733 0.593674
vt 0.710495 0.540150
vt 0.710495 0.647198
vt 0.656436 0.709584
vt 0.683733 0.540150
vt 0.683733 0.647198
vt 0.710495 0.566912
vt 0.656436 0.736346
vt 0.683733 0.566912
vt 0.710495 0.728019
vt 0.629139 0.709584
vt 0.683733 0.728019
vt 0.710495 0.701257
vt 0.655901 0.709584
vt 0.683733 0.701257
vt 0.710495 0.647733
vt 0.710495 0.754781
vt 0.629139 0.736346
vt 0.683733 0.647733
vt 0.683733 0.754781
vt 0.710495 0.674495
vt 0.655901 0.736346
vt 0.683733 0.674495
vt 0.277139 0.494397
vt 0.727571 0.484937
vt 0.250958 0.494751
vt 0.276712 0.055247
vt 0.727547 0.051748
vt 0.250581 0.055003
vt 0.689830 0.053457
vt 0.646672 0.052524
vt 0.646701 0.484674
vt 0.689870 0.483486
vt 0.166859 0.015978
vt 0.475212 0.632030
vt 0.166859 0.000268
vt 0.491047 0.631872
vt 0.474243 0.570025
vt 0.491425 0.533736
vt 0.250012 0.015978
vt 0.244000 0.000268
vt 0.485311 0.549445
vt 0.489491 0.554802
vt 0.225052 0.709963
vt 0.166859 0.531996
vt 0.166859 0.547705
vt 0.240890 0.710123
vt 0.224065 0.771986
vt 0.491505 0.016058
vt 0.250012 0.531996
vt 0.485413 0.000343
vt 0.244000 0.547706
vt 0.239314 0.787220
vt 0.571659 0.545973
vt 0.574129 0.525759
vt 0.390103 0.611325
vt 0.587440 0.540150
vt 0.374557 0.626670
vt 0.570535 0.539615
vt 0.370288 0.567704
vt 0.366803 0.533128
vt 0.366631 0.548775
vt 0.370657 0.551778
vt 0.366832 0.016567
vt 0.120072 0.774272
vt 0.366713 0.000860
vt 0.120431 0.790203
vt 0.139929 0.730636
vt 0.575096 0.014706
vt 0.667417 0.703226
vt 0.571239 0.001368
vt 0.124389 0.715309
vt 0.683198 0.709049
vt 0.225456 0.565614
vt 0.849591 0.974085
vt 0.000268 0.531994
vt 0.844739 0.990333
vt 0.006279 0.547704
vt 0.240890 0.550366
vt 0.475614 0.776365
vt 0.849591 0.456864
vt 0.000268 0.015979
vt 0.844887 0.440902
vt 0.006280 0.000269
vt 0.491047 0.791611
vt 0.282947 0.607275
vt 0.648937 0.517064
vt 0.651039 0.530587
vt 0.278897 0.622758
vt 0.266330 0.589419
vt 0.688879 0.515896
vt 0.687607 0.529169
vt 0.250547 0.592333
vt 0.283855 0.565784
vt 0.277720 0.531786
vt 0.278103 0.547283
vt 0.280728 0.549980
vt 0.271456 0.570732
vt 0.723774 0.521104
vt 0.252054 0.533208
vt 0.718227 0.535031
vt 0.259573 0.558845
vt 0.255604 0.548969
vt 0.016020 0.752448
vt 0.688033 0.020168
vt 0.000268 0.749729
vt 0.686351 0.006310
vt 0.032844 0.734819
vt 0.648212 0.020991
vt 0.649539 0.007959
vt 0.028680 0.719286
vt 0.033605 0.776128
vt 0.277273 0.017468
vt 0.277609 0.001828
vt 0.030487 0.791918
vt 0.021209 0.771188
vt 0.724617 0.015120
vt 0.251240 0.016321
vt 0.718881 0.000268
vt 0.009373 0.783084
vt 0.254720 0.000268
vt 0.561050 0.049526
vt 0.619219 0.702978
vt 0.573649 0.034787
vt 0.644002 0.703228
vt 0.585030 0.048037
vt 0.569592 0.044292
vt 0.631610 0.703133
vt 0.548244 0.545971
vt 0.572121 0.505137
vt 0.523461 0.546221
vt 0.558766 0.490365
vt 0.583447 0.491181
vt 0.567687 0.495485
vt 0.535852 0.546066
vt 0.741284 0.945439
vt 0.729234 0.946054
vt 0.631013 0.543096
vt 0.620665 0.540611
vt 0.738773 0.941158
vt 0.728266 0.952241
vt 0.636720 0.541340
vt 0.743237 0.484673
vt 0.535255 0.706103
vt 0.731354 0.484031
vt 0.540962 0.707859
vt 0.730426 0.477932
vt 0.524907 0.708588
vt 0.740739 0.488898
vt 0.160544 0.564084
vt 0.148427 0.568774
vt 0.742584 0.982174
vt 0.667405 0.541344
vt 0.729867 0.983467
vt 0.748876 0.997562
vt 0.145728 0.548241
vt 0.683198 0.547212
vt 0.735635 0.999732
vt 0.133180 0.553275
vt 0.410710 0.777895
vt 0.398594 0.773206
vt 0.744610 0.448555
vt 0.571647 0.707855
vt 0.732119 0.447238
vt 0.750843 0.433468
vt 0.395894 0.793737
vt 0.587440 0.701987
vt 0.737848 0.431284
vt 0.383347 0.788704
vt 0.491682 0.058670
vt 0.250012 0.489487
vt 0.491682 0.491100
vt 0.250012 0.058487
vt 0.166859 0.058692
vt 0.166859 0.489282
vt 0.495823 0.046513
vt 0.590179 0.702472
vt 0.890603 0.000280
vt 0.494421 0.546727
vt 0.890603 0.430737
vt 0.492217 0.495381
vt 0.367111 0.490514
vt 0.367025 0.059024
vt 0.000268 0.058995
vt 0.845228 0.500806
vt 0.845301 0.929238
vt 0.000268 0.488978
vt 0.277113 0.490315
vt 0.727731 0.481074
vt 0.250910 0.490625
vt 0.276698 0.059333
vt 0.727731 0.055613
vt 0.250547 0.059120
vt 0.689875 0.057434
vt 0.646445 0.056749
vt 0.646392 0.480381
vt 0.689893 0.479508
vt 0.780325 0.936651
vt 0.587975 0.540150
vt 0.728266 0.000268
vt 0.767897 0.935034
vt 0.782269 0.493514
vt 0.492217 0.709049
vt 0.769573 0.495092
vt 0.728266 0.430749
s 0
f 44/73/1 45/75/1 92/150/1 101/162/1
f 143/236/2 144/238/2 44/74/2 43/72/2
f 149/243/3 140/231/3 8/12/3 111/181/3
f 65/106/4 86/140/4 41/69/4 5/7/4
f 4/6/5 56/90/5 74/121/5 8/11/5
f 68/110/6 97/157/6 94/153/6 70/113/6
f 1/2/5 59/95/5 56/90/5 4/6/5
f 124/204/7 120/196/7 70/113/7 72/117/7
f 114/187/8 122/198/8 71/115/8 104/170/8
f 77/126/9 127/207/9 129/210/9 78/128/9
f 92/150/10 45/75/10 46/76/10 95/154/10
f 62/101/11 79/131/11 85/139/11 64/105/11
f 49/79/5 3/5/5 7/9/5 77/127/5
f 1/1/4 6/8/4 67/109/4 59/94/4
f 53/84/4 65/106/4 5/7/4 2/3/4
f 146/240/3 135/221/3 103/167/3 105/171/3 46/76/3
f 50/80/11 125/205/11 126/206/11 62/101/11
f 107/175/3 80/132/3 61/100/3
f 7/10/3 115/188/3 127/207/3 77/126/3
f 58/93/6 68/110/6 70/113/6 55/89/6
f 131/215/4 138/228/4 6/8/4 1/1/4
f 6/8/4 43/72/4 98/158/4 67/109/4
f 141/233/4 137/227/4 5/7/4 41/69/4
f 50/80/11 62/101/11 64/105/11 52/83/11
f 137/227/4 132/217/4 2/3/4 5/7/4
f 145/239/10 146/240/10 46/76/10 45/75/10
f 71/114/3 95/154/3 104/169/3
f 147/241/10 148/242/10 48/78/10 47/77/10
f 135/221/3 146/240/3 147/241/3 136/226/3
f 144/237/1 145/239/1 45/75/1 44/73/1
f 140/232/5 134/220/5 4/6/5 8/11/5
f 132/217/4 137/227/4 138/228/4 131/215/4
f 131/216/5 1/2/5 4/6/5 134/220/5
f 132/218/5 133/219/5 3/5/5 2/4/5
f 74/120/3 121/197/3 111/181/3 8/12/3
f 130/212/12 128/208/12 61/99/12 63/102/12
f 152/248/13 136/224/13 108/176/13 118/193/13
f 140/231/3 149/243/3 151/247/3 139/230/3
f 133/219/5 139/229/5 7/9/5 3/5/5
f 139/229/5 133/219/5 134/220/5 140/232/5
f 9/13/11 10/15/11 12/18/11 11/16/11
f 11/16/4 12/18/4 16/25/4 15/22/4
f 15/23/6 16/26/6 14/21/6 13/19/6
f 13/19/3 14/21/3 10/15/3 9/13/3
f 11/17/5 15/24/5 13/20/5 9/14/5
f 17/27/11 18/29/11 20/32/11 19/30/11
f 19/30/4 20/32/4 24/39/4 23/36/4
f 23/37/6 24/40/6 22/35/6 21/33/6
f 21/33/3 22/35/3 18/29/3 17/27/3
f 19/31/5 23/38/5 21/34/5 17/28/5
f 25/41/11 26/43/11 28/46/11 27/44/11
f 27/44/4 28/46/4 32/54/4 31/52/4
f 31/52/6 32/54/6 30/50/6 29/47/6
f 29/48/3 30/51/3 26/43/3 25/41/3
f 27/45/5 31/53/5 29/49/5 25/42/5
f 33/55/11 34/57/11 36/60/11 35/58/11
f 35/58/4 36/60/4 40/68/4 39/66/4
f 39/66/6 40/68/6 38/64/6 37/61/6
f 37/62/3 38/65/3 34/57/3 33/55/3
f 35/59/5 39/67/5 37/63/5 33/56/5
f 142/234/1 42/70/1 48/78/1 148/242/1
f 89/145/2 42/71/2 41/69/2 86/140/2
f 137/227/4 141/233/4 143/236/4 138/228/4
f 44/74/2 101/163/2 98/158/2 43/72/2
f 152/249/14 151/247/14 149/243/14 150/246/14
f 144/237/1 142/234/1 148/242/1 145/239/1
f 91/149/15 100/161/15 102/165/15 93/151/15
f 144/238/2 143/236/2 141/233/2 142/235/2
f 53/85/16 49/79/16 51/81/16 54/86/16
f 54/88/17 51/82/17 50/80/17 52/83/17
f 65/106/18 53/84/18 54/87/18 66/107/18
f 66/108/19 54/88/19 52/83/19 64/105/19
f 68/110/20 58/93/20 60/98/20 69/112/20
f 69/111/21 60/96/21 59/94/21 67/109/21
f 56/90/22 59/95/22 60/97/22 57/91/22
f 57/92/23 60/98/23 58/93/23 55/89/23
f 128/208/24 117/191/24 107/174/24 61/99/24
f 150/244/25 113/184/25 103/168/25 135/222/25
f 126/206/26 130/214/26 63/103/26 62/101/26
f 120/196/6 119/195/6 55/89/6 70/113/6
f 121/197/27 74/120/27 75/122/27 123/200/27
f 123/201/28 75/124/28 73/119/28 119/195/28
f 74/121/22 56/90/22 57/91/22 75/123/22
f 75/124/23 57/92/23 55/89/23 73/119/23
f 78/130/29 129/211/29 125/205/29 76/125/29
f 49/79/16 77/127/16 78/129/16 51/81/16
f 51/82/17 78/130/17 76/125/17 50/80/17
f 93/152/30 102/164/30 101/162/30 92/150/30
f 84/138/31 90/147/31 88/143/31 82/135/31
f 100/161/32 97/157/32 99/160/32 102/165/32
f 102/166/33 99/159/33 98/158/33 101/163/33
f 84/137/34 81/133/34 80/132/34 83/136/34
f 94/153/35 91/149/35 93/151/35 96/156/35
f 83/136/36 89/144/36 90/146/36 84/137/36
f 89/144/1 83/136/1 48/78/1 42/70/1
f 85/139/37 88/143/37 90/147/37 87/142/37
f 87/141/38 90/148/38 89/145/38 86/140/38
f 96/155/39 93/152/39 92/150/39 95/154/39
f 48/78/10 83/136/10 80/132/10 47/77/10
f 79/131/29 62/101/29 63/103/29 81/134/29
f 81/133/9 63/104/9 61/100/9 80/132/9
f 86/140/18 65/106/18 66/107/18 87/141/18
f 87/142/19 66/108/19 64/105/19 85/139/19
f 67/109/21 98/158/21 99/159/21 69/111/21
f 69/112/20 99/160/20 97/157/20 68/110/20
f 95/154/27 71/114/27 72/116/27 96/155/27
f 96/156/28 72/117/28 70/113/28 94/153/28
f 53/85/5 2/4/5 3/5/5 49/79/5
f 103/167/3 106/172/3 105/171/3
f 106/172/3 104/169/3 105/171/3
f 107/175/3 110/179/3 109/178/3
f 110/179/3 108/177/3 109/178/3
f 103/168/40 113/184/40 112/183/40 106/173/40
f 110/180/41 116/189/41 118/193/41 108/176/41
f 111/181/42 114/186/42 112/182/42 113/185/42
f 107/174/43 117/191/43 116/189/43 110/180/43
f 122/198/44 124/202/44 72/118/44 71/115/44
f 115/188/45 118/194/45 116/190/45 117/192/45
f 151/247/46 152/249/46 118/194/46 115/188/46
f 124/203/47 122/199/47 121/197/47 123/200/47
f 120/196/48 124/204/48 123/201/48 119/195/48
f 128/209/49 130/213/49 129/210/49 127/207/49
f 130/214/50 126/206/50 125/205/50 129/211/50
f 127/207/51 115/188/51 117/192/51 128/209/51
f 111/181/52 121/197/52 122/199/52 114/186/52
f 152/250/53 150/245/53 135/223/53 136/225/53
f 125/205/11 50/80/11 76/125/11
f 55/89/6 119/195/6 73/119/6
f 133/219/5 132/218/5 131/216/5 134/220/5
f 142/235/2 141/233/2 41/69/2 42/71/2
f 148/242/10 147/241/10 146/240/10 145/239/10
f 138/228/4 143/236/4 43/72/4 6/8/4
f 136/226/3 147/241/3 47/77/3 109/178/3 108/177/3
f 150/246/54 149/243/54 111/181/54 113/185/54
f 139/230/3 151/247/3 115/188/3 7/10/3
f 80/132/3 107/175/3 109/178/3 47/77/3
f 104/169/3 95/154/3 46/76/3 105/171/3
f 82/135/55 79/131/55 81/134/55 84/138/55
f 94/153/6 97/157/6 100/161/6 91/149/6
f 85/139/11 79/131/11 82/135/11 88/143/11
f 106/173/56 112/183/56 114/187/56 104/170/56
