# Blender 3.1.0
# www.blender.org
o grammofono
v 0.000000 0.210524 -0.186518
v -0.109632 0.210524 -0.150896
v -0.177389 0.210524 -0.057637
v -0.177389 0.210524 0.057637
v -0.109632 0.210524 0.150896
v 0.000000 0.210524 0.186518
v 0.109632 0.210524 0.150896
v 0.177389 0.210524 0.057637
v 0.177389 0.210524 -0.057637
v 0.109632 0.210524 -0.150896
v 0.000000 0.229509 -0.186517
v -0.109632 0.229509 -0.150896
v -0.177389 0.229509 -0.057637
v -0.177389 0.229509 0.057637
v -0.109632 0.229509 0.150896
v 0.000000 0.229509 0.186518
v 0.109632 0.229509 0.150896
v 0.177389 0.229509 0.057637
v 0.109632 0.229509 -0.150896
v 0.000000 0.229177 0.000000
v 0.177389 0.229509 -0.057637
v -0.259841 0.000000 0.259841
v -0.259841 0.012213 0.272053
v -0.272053 0.012213 0.259841
v -0.259841 0.198643 0.272053
v -0.259841 0.210856 0.259841
v -0.272053 0.198643 0.259841
v -0.259841 0.000000 -0.259841
v -0.272053 0.012213 -0.259841
v -0.259841 0.012213 -0.272053
v -0.259841 0.210856 -0.259841
v -0.259841 0.198643 -0.272053
v -0.272053 0.198643 -0.259841
v 0.259841 0.000000 0.259841
v 0.272053 0.012213 0.259841
v 0.259841 0.012213 0.272053
v 0.259841 0.210856 0.259841
v 0.259841 0.198643 0.272053
v 0.272053 0.198643 0.259841
v 0.259841 0.000000 -0.259841
v 0.259841 0.012213 -0.272053
v 0.272053 0.012213 -0.259841
v 0.259841 0.210856 -0.259841
v 0.272053 0.198643 -0.259841
v 0.259841 0.198643 -0.272053
v -0.017132 0.512493 -0.119450
v -0.006576 0.447499 -0.077996
v 0.054108 0.447315 -0.002589
v 0.094920 0.523284 0.014931
v 0.079455 0.593847 -0.035046
v 0.023370 0.588432 -0.102301
v -0.028476 0.525578 -0.056825
v -0.023631 0.495746 -0.037798
v 0.011268 0.495675 0.005552
v 0.031310 0.536765 0.012506
v 0.021363 0.572258 -0.015324
v -0.008553 0.566657 -0.050014
v 0.122495 0.464602 -0.127219
v 0.120355 0.434046 -0.100750
v 0.155710 0.434232 -0.057042
v 0.186405 0.474024 -0.056924
v 0.185928 0.511190 -0.093371
v 0.154136 0.506250 -0.128070
v 0.242994 0.272488 -0.185537
v 0.240667 0.274305 -0.179111
v 0.257897 0.274258 -0.157965
v 0.272715 0.269140 -0.165885
v 0.273187 0.265739 -0.182885
v 0.258377 0.267343 -0.192977
v 0.257415 0.419580 -0.158406
v 0.252506 0.396510 -0.125017
v 0.223623 0.372258 -0.119296
v 0.195610 0.372141 -0.153867
v 0.232058 0.415656 -0.183167
v 0.201326 0.389050 -0.175767
v 0.234307 0.231562 -0.169788
v 0.247413 0.231508 -0.153730
v 0.234062 0.170456 -0.142976
v 0.254158 0.224829 -0.171682
v 0.243566 0.226853 -0.176851
v 0.212722 0.174660 -0.152896
v 0.234547 0.231311 -0.170477
v 0.221745 0.170201 -0.159269
v 0.232336 0.168179 -0.154095
v 0.255896 0.227098 -0.160582
v 0.225555 0.174869 -0.136143
v 0.212472 0.174920 -0.152180
v 0.001397 0.531201 -0.022198
v -0.305401 0.566703 -0.161522
v -0.265880 0.323369 -0.006319
v -0.071092 0.323226 0.235530
v 0.074659 0.577581 0.305494
v 0.030185 0.826489 0.141711
v -0.159891 0.821035 -0.091847
v -0.285824 0.566932 -0.135474
v -0.303300 0.568599 -0.147552
v -0.265464 0.335640 0.001033
v -0.250760 0.351044 0.002223
v -0.078158 0.335547 0.233573
v -0.076182 0.350965 0.218957
v 0.061461 0.579683 0.300383
v 0.053381 0.578078 0.280711
v 0.018573 0.818273 0.143070
v 0.013235 0.799614 0.134241
v -0.163838 0.812721 -0.080930
v -0.156393 0.794032 -0.073879
v 0.284335 0.105822 0.045333
v 0.284335 0.106637 0.049873
v 0.264857 0.129210 0.045821
v 0.264857 0.128395 0.041281
v 0.264857 0.117760 0.033883
v 0.264857 0.113220 0.034697
v 0.264857 0.117272 0.057271
v 0.264857 0.121812 0.056456
v 0.264857 0.105822 0.045333
v 0.264857 0.106637 0.049873
v 0.284335 0.117272 0.057271
v 0.284335 0.121812 0.056456
v 0.284335 0.117760 0.033883
v 0.284335 0.113220 0.034697
v 0.284335 0.129210 0.045821
v 0.284335 0.128395 0.041281
v 0.342743 0.117272 0.057271
v 0.346005 0.119135 0.054593
v 0.342743 0.121812 0.056456
v 0.342743 0.103959 0.048010
v 0.346005 0.105822 0.045333
v 0.342743 0.129210 0.045821
v 0.346005 0.126533 0.043958
v 0.342743 0.128395 0.041281
v 0.346005 0.113220 0.034697
v 0.342743 0.115082 0.032020
v 0.329418 0.128395 0.041281
v 0.329418 0.129210 0.045821
v 0.332679 0.117760 0.033883
v 0.329418 0.113220 0.034697
v 0.329418 0.121812 0.056456
v 0.329418 0.117272 0.057271
v 0.329418 0.105822 0.045333
v 0.332679 0.106637 0.049873
v 0.349266 0.063058 0.015585
v 0.346005 0.065735 0.017448
v 0.342743 0.058518 0.016400
v 0.349266 0.070456 0.004950
v 0.342743 0.069641 0.000410
v 0.346005 0.073133 0.006812
v 0.332679 0.072319 0.002272
v 0.329418 0.070456 0.004950
v 0.329418 0.063058 0.015585
v 0.332679 0.061195 0.018262
v 0.346005 0.047607 0.004837
v 0.346005 0.048422 0.009377
v 0.346005 0.059545 -0.006613
v 0.346005 0.055005 -0.005798
v 0.332679 0.059545 -0.006613
v 0.329418 0.055005 -0.005798
v 0.332679 0.048422 0.009377
v 0.329418 0.047607 0.004837
v 0.404468 0.063058 0.015585
v 0.404468 0.058518 0.016400
v 0.407729 0.060380 0.013722
v 0.404468 0.070456 0.004950
v 0.407729 0.067779 0.003087
v 0.404468 0.069641 0.000410
v 0.404468 0.047607 0.004837
v 0.407729 0.050285 0.006700
v 0.404468 0.048422 0.009377
v 0.404468 0.055005 -0.005798
v 0.404468 0.059545 -0.006613
v 0.407729 0.057683 -0.003935
v 0.113502 0.220016 0.156222
v 0.183650 0.220016 0.059671
v -0.183650 0.220016 0.059671
v -0.113502 0.220016 0.156222
v 0.000000 0.220016 -0.193101
v -0.113502 0.220016 -0.156222
v 0.000000 0.220016 0.193101
v -0.183650 0.220016 -0.059671
v 0.113502 0.220016 -0.156222
v 0.183650 0.220016 -0.059671
vn -0.0000 -0.0000 1.0000
vn 1.0000 -0.0000 -0.0000
vn -0.0000 1.0000 -0.0000
vn -1.0000 -0.0000 -0.0000
vn -0.0000 -0.0000 -1.0000
vn 0.6753 0.5506 0.4907
vn -0.6753 0.5506 0.4907
vn -0.2580 0.5506 -0.7939
vn 0.8348 0.5506 -0.0000
vn -0.2580 0.5506 0.7939
vn -0.6753 0.5506 -0.4907
vn 0.6753 0.5506 -0.4907
vn 0.2580 0.5506 0.7939
vn -0.8348 0.5506 -0.0000
vn 0.2580 0.5506 -0.7939
vn -0.0015 1.0000 -0.0011
vn 0.0015 1.0000 -0.0011
vn 0.0006 1.0000 0.0018
vn -0.0019 1.0000 -0.0000
vn 0.0006 1.0000 -0.0018
vn 0.0015 1.0000 0.0011
vn -0.0015 1.0000 0.0011
vn -0.0006 1.0000 -0.0018
vn 0.0019 1.0000 -0.0000
vn -0.0006 1.0000 0.0018
vn 0.4063 0.8052 -0.4320
vn -0.4918 0.4101 0.7681
vn -0.7511 0.2640 0.6051
vn 0.4160 -0.3827 0.8249
vn 0.0227 -0.5350 -0.8446
vn 0.6834 0.5157 0.5167
vn -0.0436 0.1634 -0.9856
vn -0.7310 -0.4239 -0.5347
vn -0.0906 -0.9932 0.0731
vn -0.2937 -0.0794 0.9526
vn -0.5057 0.7679 0.3932
vn 0.1644 0.1631 -0.9728
vn -0.2489 0.5013 0.8287
vn 0.9200 -0.3902 0.0373
vn -0.6936 0.4438 0.5674
vn 0.5138 -0.0693 0.8551
vn -0.7510 0.2452 0.6130
vn 0.4154 -0.4400 -0.7961
vn 0.3788 -0.2252 0.8977
vn -0.9330 0.0616 -0.3546
vn -0.6884 -0.4615 0.5596
vn -0.3032 -0.0074 -0.9529
vn 0.9855 0.0932 0.1416
vn 0.4466 -0.3431 0.8263
vn 0.4453 0.7179 -0.5350
vn -0.3629 0.2222 -0.9050
vn -0.8705 -0.2868 -0.4000
vn -0.5854 -0.0260 -0.8104
vn -0.5342 -0.1645 -0.8292
vn 0.6273 -0.0000 0.7788
vn -0.8927 0.2222 -0.3922
vn -0.1758 0.5089 0.8427
vn -0.6979 -0.4030 0.5921
vn -0.4533 0.8129 0.3656
vn -0.9870 -0.1184 0.1091
vn -0.0000 0.8209 0.5710
vn -0.0000 0.5710 -0.8209
vn -0.0000 -0.8209 -0.5710
vn -0.0000 -0.5710 0.8209
vn -0.0000 0.5711 -0.8209
vn -0.0000 -0.5711 0.8209
vn -0.5774 -0.5773 0.5773
vn -0.5774 0.5773 0.5773
vn -0.5774 -0.5774 -0.5773
vn -0.5774 0.5774 -0.5773
vn 0.5774 -0.5773 0.5773
vn 0.5774 0.5773 0.5773
vn 0.5774 -0.5774 -0.5773
vn 0.5774 0.5774 -0.5773
vn -0.7071 -0.7071 -0.0000
vn -0.7071 -0.0000 0.7071
vn -0.7071 0.7071 -0.0000
vn -0.7071 -0.0000 -0.7071
vn -0.0000 -0.7071 -0.7071
vn -0.0000 0.7071 -0.7071
vn 0.7071 -0.0000 -0.7071
vn 0.7071 -0.7071 -0.0000
vn 0.7071 0.7071 -0.0000
vn 0.7071 -0.0000 0.7071
vn -0.0000 -0.7071 0.7071
vn -0.0000 0.7071 0.7071
vn -0.0000 -1.0000 -0.0000
vn -0.6395 0.5705 0.5153
vn -0.9229 0.0819 0.3763
vn -0.7723 -0.0736 0.6310
vn -0.8735 0.4831 0.0598
vn -0.5571 0.0934 0.8252
vn 0.8408 0.3824 0.3832
vn -0.4327 -0.8293 0.3535
vn 0.6396 0.1741 -0.7487
vn 0.9239 -0.3768 -0.0670
vn 0.3407 -0.3959 -0.8527
vn 0.3494 -0.8935 -0.2823
vn 0.8400 -0.5176 0.1628
vn 0.9796 0.1994 0.0233
vn -0.7356 -0.3289 0.5923
vn -0.9858 -0.0603 0.1565
vn -0.8584 0.4042 0.3157
vn -0.3601 -0.0495 0.9316
vn -0.8718 0.4897 -0.0132
vn -0.2229 -0.5778 -0.7852
vn 0.5773 0.1443 0.8037
vn 0.5774 0.8036 -0.1443
vn 0.3015 -0.2690 0.9147
vn 0.3015 0.7640 -0.5704
vn 0.5774 0.8037 -0.1443
vn 0.5774 -0.8037 0.1443
vn 0.5774 -0.1443 -0.8037
vn -0.0000 -0.9843 0.1767
vn -0.0000 0.9843 -0.1767
vn -0.0000 -0.1767 -0.9843
vn -0.0000 0.1767 0.9843
vn 0.7071 -0.4038 0.5805
vn 0.7071 0.5805 0.4038
vn 0.7071 0.4038 -0.5805
vn -0.7071 0.4038 -0.5805
vn -0.7071 -0.4038 0.5805
vn 0.7071 -0.5805 -0.4038
vn 0.2580 -0.5506 -0.7939
vn -0.8348 -0.5506 -0.0000
vn 0.2580 -0.5506 0.7939
vn 0.6753 -0.5506 -0.4907
vn -0.6753 -0.5506 -0.4907
vn -0.2580 -0.5506 0.7939
vn 0.8348 -0.5506 -0.0000
vn -0.2580 -0.5506 -0.7939
vn -0.6753 -0.5506 0.4907
vn 0.6753 -0.5506 0.4907
vn 0.6417 0.5399 -0.5447
vt 0.613295 0.394572
vt 0.605159 0.397215
vt 0.597024 0.394572
vt 0.591996 0.387651
vt 0.591996 0.379097
vt 0.597024 0.372176
vt 0.605159 0.369533
vt 0.613295 0.372176
vt 0.618323 0.379097
vt 0.618323 0.387651
vt 0.612253 0.393168
vt 0.605141 0.395467
vt 0.598036 0.393147
vt 0.593652 0.387094
vt 0.593664 0.379620
vt 0.598066 0.373580
vt 0.605177 0.371281
vt 0.612282 0.373601
vt 0.616655 0.387128
vt 0.605159 0.383374
vt 0.616666 0.379654
vt 0.883799 0.007673
vt 0.883273 0.009186
vt 0.049878 0.333674
vt 0.891525 0.000263
vt 0.883273 0.000263
vt 0.893242 0.009566
vt 0.992411 0.002218
vt 0.146192 0.333674
vt 0.999737 0.009955
vt 0.155114 0.333674
vt 0.990590 0.011809
vt 0.883799 0.273877
vt 0.883273 0.277665
vt 0.892946 0.272023
vt 0.528830 0.333674
vt 0.891125 0.281614
vt 0.883273 0.286588
vt 0.999737 0.276159
vt 0.423593 0.333674
vt 0.992011 0.283569
vt 0.432516 0.333674
vt 0.990294 0.274266
vt 0.734713 0.094134
vt 0.614794 0.009186
vt 0.725567 0.095988
vt 0.049878 0.065195
vt 0.727388 0.086397
vt 0.614794 0.000263
vt 0.618776 0.091852
vt 0.155114 0.065195
vt 0.626501 0.084442
vt 0.146192 0.065195
vt 0.628219 0.093745
vt 0.734713 0.360338
vt 0.614794 0.277665
vt 0.528830 0.065195
vt 0.614794 0.286588
vt 0.726988 0.367748
vt 0.725271 0.358445
vt 0.423593 0.065195
vt 0.618776 0.358056
vt 0.627922 0.356202
vt 0.432516 0.065195
vt 0.626101 0.365793
vt 0.268598 0.687637
vt 0.063520 0.770199
vt 0.232438 0.705196
vt 0.096517 0.784144
vt 0.136671 0.791425
vt 0.213767 0.751585
vt 0.173760 0.806862
vt 0.231352 0.793508
vt 0.214518 0.826363
vt 0.272500 0.812647
vt 0.257896 0.834724
vt 0.036867 0.740330
vt 0.312627 0.698445
vt 0.315769 0.799142
vt 0.546423 0.698952
vt 0.567444 0.709842
vt 0.568375 0.748617
vt 0.537826 0.760444
vt 0.513039 0.740304
vt 0.518097 0.709407
vt 0.117120 0.712325
vt 0.136941 0.725343
vt 0.167057 0.737863
vt 0.193403 0.746427
vt 0.218904 0.753701
vt 0.242672 0.757369
vt 0.096700 0.692280
vt 0.208204 0.608880
vt 0.210061 0.612116
vt 0.223631 0.621514
vt 0.232113 0.621270
vt 0.239510 0.621556
vt 0.205045 0.600650
vt 0.246977 0.622551
vt 0.230591 0.693237
vt 0.211519 0.686811
vt 0.193249 0.677925
vt 0.171643 0.665841
vt 0.141389 0.645656
vt 0.247936 0.693839
vt 0.158388 0.658116
vt 0.225332 0.594680
vt 0.233408 0.599542
vt 0.249369 0.577581
vt 0.243460 0.603244
vt 0.221012 0.591157
vt 0.248295 0.604323
vt 0.238303 0.571689
vt 0.224998 0.594442
vt 0.234077 0.569586
vt 0.257896 0.581203
vt 0.253463 0.579535
vt 0.238484 0.601680
vt 0.245435 0.575401
vt 0.238700 0.571886
vt 0.542547 0.729038
vt 0.255853 0.535081
vt 0.328157 0.820613
vt 0.120475 0.600824
vt 0.210528 0.910572
vt 0.060721 0.749710
vt 0.057539 0.866202
vt 0.116754 0.894982
vt 0.006122 0.718974
vt 0.094171 0.590327
vt 0.255847 0.964813
vt 0.251272 0.584818
vt 0.405720 0.576926
vt 0.328157 0.666134
vt 0.405720 0.923004
vt 0.549009 0.511280
vt 0.311827 0.812766
vt 0.321474 0.817388
vt 0.209261 0.903300
vt 0.735666 0.618901
vt 0.207280 0.892671
vt 0.062592 0.860615
vt 0.070081 0.852558
vt 0.735666 0.846672
vt 0.013631 0.719749
vt 0.024509 0.721015
vt 0.542031 0.955740
vt 0.097986 0.596867
vt 0.347635 0.841960
vt 0.103404 0.606326
vt 0.248423 0.591843
vt 0.321611 0.669418
vt 0.350577 0.616736
vt 0.243629 0.601895
vt 0.311951 0.674928
vt 0.655793 0.435001
vt 0.319998 0.461495
vt 0.654107 0.436796
vt 0.378318 0.454276
vt 0.820979 0.447521
vt 0.819527 0.445565
vt 0.815451 0.440068
vt 0.813997 0.438109
vt 0.330061 0.468188
vt 0.641835 0.434714
vt 0.378318 0.460969
vt 0.640156 0.436502
vt 0.648232 0.427899
vt 0.330061 0.461495
vt 0.646550 0.429690
vt 0.649384 0.441808
vt 0.368255 0.460969
vt 0.647706 0.443593
vt 0.807182 0.446211
vt 0.805725 0.444247
vt 0.319998 0.468188
vt 0.368255 0.454276
vt 0.812717 0.453654
vt 0.811265 0.451700
vt 0.671391 0.462666
vt 0.672511 0.464632
vt 0.335697 0.460969
vt 0.338080 0.460969
vt 0.670083 0.464480
vt 0.677828 0.458016
vt 0.327319 0.460969
vt 0.679168 0.459975
vt 0.338080 0.454276
vt 0.788281 0.471699
vt 0.335697 0.454276
vt 0.785912 0.471609
vt 0.787176 0.469794
vt 0.327319 0.454276
vt 0.779760 0.466359
vt 0.781362 0.464495
vt 0.792195 0.465897
vt 0.344964 0.454276
vt 0.793645 0.467841
vt 0.786389 0.461641
vt 0.296707 0.468188
vt 0.786482 0.458509
vt 0.344964 0.460969
vt 0.665126 0.459991
vt 0.666803 0.458208
vt 0.296707 0.461495
vt 0.673395 0.451501
vt 0.673120 0.454617
vt 0.299709 0.460969
vt 0.703019 0.446102
vt 0.302092 0.460969
vt 0.700602 0.445840
vt 0.702263 0.441824
vt 0.299709 0.454276
vt 0.757346 0.449647
vt 0.758583 0.445464
vt 0.302092 0.454276
vt 0.759785 0.449663
vt 0.763525 0.442548
vt 0.269795 0.468188
vt 0.765104 0.440667
vt 0.269795 0.461495
vt 0.696428 0.436384
vt 0.697762 0.438409
vt 0.268640 0.475407
vt 0.710036 0.437182
vt 0.708347 0.438770
vt 0.752809 0.441761
vt 0.268640 0.468714
vt 0.751219 0.439920
vt 0.757715 0.437513
vt 0.260071 0.468188
vt 0.260071 0.468714
vt 0.757725 0.434646
vt 0.704024 0.434140
vt 0.260071 0.461495
vt 0.260071 0.475407
vt 0.704331 0.431351
vt 0.271191 0.460969
vt 0.722031 0.465401
vt 0.723316 0.463463
vt 0.268808 0.460969
vt 0.724682 0.465435
vt 0.271191 0.454276
vt 0.736532 0.466552
vt 0.268808 0.454276
vt 0.734072 0.466326
vt 0.735465 0.464603
vt 0.298844 0.475407
vt 0.260071 0.460969
vt 0.729439 0.458500
vt 0.262454 0.460969
vt 0.729299 0.461034
vt 0.727496 0.459686
vt 0.298844 0.468714
vt 0.260071 0.454276
vt 0.729950 0.459026
vt 0.731829 0.460375
vt 0.262454 0.454276
vt 0.729834 0.461666
vt 0.605179 0.370430
vt 0.612784 0.372914
vt 0.592842 0.387355
vt 0.592855 0.379355
vt 0.612751 0.393858
vt 0.605139 0.396318
vt 0.597567 0.372890
vt 0.597535 0.393834
vt 0.617464 0.387393
vt 0.617476 0.379393
s 0
f 36/47/1 38/53/1 25/29/1 23/24/1
f 42/60/2 44/63/2 39/54/2 35/46/2
f 43/61/3 31/40/3 26/31/3 37/51/3
f 24/27/4 27/32/4 33/43/4 29/35/4
f 30/36/5 32/42/5 45/64/5 41/57/5
f 171/260/6 172/261/6 18/18/6 17/17/6
f 173/262/7 174/263/7 15/15/7 14/14/7
f 175/264/8 176/265/8 12/12/8 11/11/8
f 172/261/9 180/269/9 21/21/9 18/18/9
f 174/263/10 177/266/10 16/16/10 15/15/10
f 176/265/11 178/267/11 13/13/11 12/12/11
f 180/269/12 179/268/12 19/19/12 21/21/12
f 177/266/13 171/260/13 17/17/13 16/16/13
f 178/267/14 173/262/14 14/14/14 13/13/14
f 179/268/15 175/264/15 11/11/15 19/19/15
f 17/17/16 18/18/16 20/20/16
f 14/14/17 15/15/17 20/20/17
f 11/11/18 12/12/18 20/20/18
f 18/18/19 21/21/19 20/20/19
f 15/15/20 16/16/20 20/20/20
f 12/12/21 13/13/21 20/20/21
f 21/21/22 19/19/22 20/20/22
f 16/16/23 17/17/23 20/20/23
f 13/13/24 14/14/24 20/20/24
f 19/19/25 11/11/25 20/20/25
f 63/91/26 51/76/26 50/74/26 62/90/26
f 98/141/27 95/137/27 96/138/27 97/139/27
f 56/84/28 88/121/28 55/83/28
f 61/89/29 49/72/29 48/70/29 60/88/29
f 89/122/30 46/66/30 47/68/30 90/124/30
f 62/90/31 50/74/31 49/72/31 61/89/31
f 52/80/28 53/81/28 88/121/28
f 58/86/32 46/67/32 51/77/32 63/92/32
f 57/85/28 88/121/28 56/84/28
f 52/80/28 88/121/28 57/85/28
f 59/87/33 58/86/33 75/106/33 73/103/33
f 54/82/28 88/121/28 53/81/28
f 60/88/34 48/70/34 47/69/34 59/87/34
f 95/136/35 52/80/35 57/85/35 106/153/35
f 105/151/36 103/148/36 93/130/36 94/132/36
f 46/66/37 89/122/37 94/133/37 51/78/37
f 103/148/38 101/145/38 92/129/38 93/130/38
f 79/110/39 68/97/39 67/96/39 85/118/39
f 76/107/40 87/120/40 86/119/40 77/108/40
f 85/118/41 67/96/41 66/95/41 77/108/41
f 77/108/42 66/95/42 65/94/42 76/107/42
f 80/112/43 69/99/43 68/97/43 79/110/43
f 67/96/44 71/101/44 72/102/44 66/95/44
f 65/94/45 64/93/45 82/114/45 76/107/45
f 73/103/46 65/94/46 66/95/46 72/102/46
f 64/93/47 75/106/47 74/104/47 69/98/47
f 68/97/48 70/100/48 71/101/48 67/96/48
f 71/101/49 61/89/49 60/88/49 72/102/49
f 74/105/50 63/91/50 62/90/50 70/100/50
f 75/106/51 58/86/51 63/92/51 74/104/51
f 73/103/52 75/106/52 64/93/52 65/94/52
f 81/113/53 82/114/53 80/111/53 83/115/53
f 82/114/54 64/93/54 69/98/54 80/111/54
f 78/109/55 85/118/55 77/108/55 86/119/55
f 76/107/56 82/114/56 81/113/56 87/120/56
f 95/136/57 98/140/57 53/81/57 52/80/57
f 106/153/58 57/85/58 56/84/58 104/149/58
f 53/81/59 98/140/59 100/144/59 54/82/59
f 104/149/60 56/84/60 55/83/60 102/147/60
f 121/177/61 118/172/61 137/202/61 134/197/61
f 135/199/62 132/195/62 145/215/62 147/218/62
f 107/157/63 120/176/63 136/200/63 139/205/63
f 108/158/64 117/171/64 113/165/64 116/170/64
f 111/162/62 110/161/62 122/179/62 119/174/62
f 134/197/61 137/202/61 125/183/61 128/188/61
f 131/193/2 127/186/2 142/210/2 146/216/2
f 126/185/64 140/207/64 150/223/64 143/212/64
f 131/193/2 129/190/2 124/182/2 127/186/2
f 121/177/61 109/159/61 114/166/61 118/172/61
f 117/171/64 108/158/64 140/207/64 138/204/64
f 119/174/62 122/179/62 133/196/62 135/199/62
f 138/204/64 140/207/64 126/185/64 123/180/64
f 151/224/63 154/228/63 168/254/63 165/248/63
f 144/213/61 141/208/61 159/238/61 162/243/61
f 135/199/62 133/196/62 130/192/62 132/195/62
f 139/205/4 136/200/4 148/219/4 149/221/4
f 163/245/2 161/241/2 166/251/2 170/258/2
f 153/227/62 145/215/62 164/247/62 169/257/62
f 143/212/64 152/226/64 167/253/64 160/240/64
f 149/221/4 148/219/4 156/231/4 158/235/4
f 158/236/63 156/232/63 154/228/63 151/224/63
f 147/218/65 145/215/65 153/227/65 155/230/65
f 143/212/66 150/223/66 157/234/66 152/226/66
f 22/22/67 23/25/67 24/27/67
f 25/28/68 26/30/68 27/32/68
f 28/33/69 29/35/69 30/37/69
f 31/39/70 32/41/70 33/43/70
f 34/44/71 35/46/71 36/48/71
f 37/50/72 38/52/72 39/54/72
f 40/55/73 41/59/73 42/60/73
f 43/62/74 44/63/74 45/65/74
f 28/33/75 22/22/75 24/27/75 29/35/75
f 23/25/76 25/28/76 27/32/76 24/27/76
f 26/30/77 31/39/77 33/43/77 27/32/77
f 32/41/78 30/37/78 29/35/78 33/43/78
f 40/56/79 28/34/79 30/38/79 41/58/79
f 31/40/80 43/61/80 45/64/80 32/42/80
f 44/63/81 42/60/81 41/59/81 45/65/81
f 34/44/82 40/55/82 42/60/82 35/46/82
f 43/62/83 37/50/83 39/54/83 44/63/83
f 38/52/84 36/48/84 35/46/84 39/54/84
f 22/23/85 34/45/85 36/49/85 23/26/85
f 37/51/86 26/31/86 25/29/86 38/53/86
f 28/34/87 40/56/87 34/45/87 22/23/87
f 98/141/88 97/139/88 99/142/88 100/143/88
f 103/148/89 104/150/89 102/146/89 101/145/89
f 105/151/90 106/154/90 104/150/90 103/148/90
f 96/138/91 105/152/91 94/134/91 89/123/91
f 96/138/92 95/137/92 106/155/92 105/152/92
f 70/100/93 62/90/93 61/89/93 71/101/93
f 72/102/94 60/88/94 59/87/94 73/103/94
f 69/99/95 74/105/95 70/100/95 68/97/95
f 84/117/96 79/110/96 85/118/96 78/109/96
f 83/116/97 80/112/97 79/110/97 84/117/97
f 55/83/28 88/121/28 54/82/28
f 90/124/98 47/68/98 48/71/98 91/126/98
f 49/73/99 92/128/99 91/126/99 48/71/99
f 50/75/100 93/131/100 92/128/100 49/73/100
f 99/142/101 97/139/101 90/125/101 91/127/101
f 89/123/102 90/125/102 97/139/102 96/138/102
f 101/145/103 102/146/103 100/143/103 99/142/103
f 101/145/104 99/142/104 91/127/104 92/129/104
f 102/147/105 55/83/105 54/82/105 100/144/105
f 47/69/106 46/67/106 58/86/106 59/87/106
f 123/180/107 124/181/107 125/184/107
f 128/189/108 129/191/108 130/192/108
f 141/209/109 142/211/109 143/212/109
f 144/214/110 145/215/110 146/217/110
f 159/239/107 160/240/107 161/242/107
f 162/244/111 163/246/111 164/247/111
f 165/250/112 166/252/112 167/253/112
f 168/256/113 169/257/113 170/259/113
f 115/168/114 107/156/114 108/158/114 116/170/114
f 109/160/115 121/178/115 122/179/115 110/161/115
f 120/175/116 112/163/116 111/162/116 119/174/116
f 118/173/117 114/167/117 113/165/117 117/171/117
f 123/180/118 126/185/118 127/187/118 124/181/118
f 128/188/119 125/183/119 124/182/119 129/190/119
f 129/191/120 131/194/120 132/195/120 130/192/120
f 134/198/115 128/189/115 130/192/115 133/196/115
f 136/201/116 120/175/116 119/174/116 135/199/116
f 138/204/117 123/180/117 125/184/117 137/203/117
f 140/207/114 108/158/114 107/156/114 139/206/114
f 121/178/115 134/198/115 133/196/115 122/179/115
f 117/171/117 138/204/117 137/203/117 118/173/117
f 141/208/119 144/213/119 146/216/119 142/210/119
f 126/185/118 143/212/118 142/211/118 127/187/118
f 145/215/120 132/195/120 131/194/120 146/217/120
f 135/199/121 147/218/121 148/220/121 136/201/121
f 150/223/122 140/207/122 139/206/122 149/222/122
f 154/229/116 156/233/116 155/230/116 153/227/116
f 152/226/114 157/234/114 158/237/114 151/225/114
f 147/218/121 155/230/121 156/233/121 148/220/121
f 157/234/122 150/223/122 149/222/122 158/237/122
f 161/241/119 163/245/119 162/243/119 159/238/119
f 165/249/123 168/255/123 170/258/123 166/251/123
f 163/246/120 170/259/120 169/257/120 164/247/120
f 166/252/118 161/242/118 160/240/118 167/253/118
f 144/214/115 162/244/115 164/247/115 145/215/115
f 168/256/116 154/229/116 153/227/116 169/257/116
f 167/253/114 152/226/114 151/225/114 165/250/114
f 159/239/117 141/209/117 143/212/117 160/240/117
f 112/164/63 120/176/63 107/157/63 115/169/63
f 10/10/124 1/1/124 175/264/124 179/268/124
f 3/3/125 4/4/125 173/262/125 178/267/125
f 6/6/126 7/7/126 171/260/126 177/266/126
f 9/9/127 10/10/127 179/268/127 180/269/127
f 2/2/128 3/3/128 178/267/128 176/265/128
f 5/5/129 6/6/129 177/266/129 174/263/129
f 8/8/130 9/9/130 180/269/130 172/261/130
f 1/1/131 2/2/131 176/265/131 175/264/131
f 4/4/132 5/5/132 174/263/132 173/262/132
f 7/7/133 8/8/133 172/261/133 171/260/133
f 51/79/134 94/135/134 93/131/134 50/75/134
