# Blender 3.3.0
# www.blender.org
o radio
v -0.207177 0.047696 0.155830
v -0.207177 0.305455 0.155830
v -0.232708 0.000000 -0.133764
v -0.283850 0.031814 -0.133764
v -0.232708 0.031814 -0.165578
v -0.232708 0.353151 -0.133764
v -0.232708 0.321337 -0.165578
v -0.283850 0.321337 -0.133764
v 0.207177 0.047696 0.155830
v 0.207177 0.305455 0.155830
v 0.232708 0.000000 -0.133764
v 0.232708 0.031814 -0.165578
v 0.283850 0.031814 -0.133764
v 0.232708 0.353151 -0.133764
v 0.283850 0.321337 -0.133764
v 0.232708 0.321337 -0.165578
v -0.232708 0.000000 0.133764
v -0.232708 0.025032 0.155815
v -0.243610 0.031814 0.155815
v -0.283850 0.031814 0.133764
v -0.232708 0.328119 0.155815
v -0.232708 0.353151 0.133764
v -0.283850 0.321337 0.133764
v -0.243610 0.321337 0.155815
v 0.232708 0.025032 0.155815
v 0.232708 0.000000 0.133764
v 0.283850 0.031814 0.133764
v 0.243610 0.031814 0.155815
v 0.232708 0.353151 0.133764
v 0.232708 0.328119 0.155815
v 0.243610 0.321337 0.155815
v 0.283850 0.321337 0.133764
v 0.176318 0.330704 0.018207
v 0.219660 0.564369 0.018207
v 0.176318 0.330704 0.006485
v 0.219660 0.564369 0.006485
v 0.187843 0.328567 0.018207
v 0.231185 0.562231 0.018207
v 0.187843 0.328567 0.006485
v 0.231185 0.562231 0.006485
v 0.184912 0.330704 0.012453
v 0.172535 0.524838 -0.021362
v 0.173904 0.330704 0.016482
v 0.161528 0.524838 -0.017334
v 0.180951 0.328567 0.001631
v 0.168574 0.522700 -0.032185
v 0.169943 0.328567 0.005659
v 0.157567 0.522700 -0.028157
vn -0.0000 -0.0000 1.0000
vn 0.5282 0.8491 -0.0000
vn 0.0002 -0.0004 1.0000
vn -0.0000 0.0007 1.0000
vn -0.0000 -0.0000 -1.0000
vn -0.0000 -1.0000 -0.0000
vn -0.5282 0.8491 -0.0000
vn -0.4026 -0.6473 -0.6473
vn -0.4026 0.6473 -0.6473
vn 0.5282 -0.8491 -0.0000
vn 0.4026 -0.6473 -0.6473
vn 0.4026 0.6473 -0.6473
vn -0.0002 -0.0004 1.0000
vn -1.0000 -0.0000 -0.0000
vn -0.0000 1.0000 -0.0000
vn -0.5282 -0.0000 -0.8491
vn -0.0000 -0.7071 -0.7071
vn -0.0000 0.7071 -0.7071
vn 0.5282 -0.0000 -0.8491
vn 0.0004 -0.0000 1.0000
vn 0.0002 0.0004 1.0000
vn 1.0000 -0.0000 -0.0000
vn -0.0004 -0.0000 1.0000
vn -0.0002 0.0004 1.0000
vn -0.0000 -0.0007 1.0000
vn -0.3803 -0.6113 0.6940
vn -0.3803 0.6113 0.6940
vn 0.3803 -0.6113 0.6940
vn 0.3803 0.6113 0.6940
vn -0.4806 -0.0000 0.8770
vn 0.4806 -0.0000 0.8770
vn -0.0000 -0.6610 0.7504
vn -0.0000 0.6610 0.7504
vn -0.5282 -0.8491 -0.0000
vn -0.9832 0.1824 -0.0000
vn 0.9832 -0.1824 -0.0000
vn 0.3379 0.1824 0.9233
vn -0.9391 -0.0000 0.3437
vn -0.3379 -0.1824 -0.9233
vn 0.9391 -0.0000 -0.3437
vt 0.080289 0.563815
vt 0.080289 0.938959
vt 0.000246 0.047376
vt 0.459210 0.453977
vt 0.362665 0.506792
vt 0.033803 0.000246
vt 0.459210 0.505556
vt 0.040443 0.053160
vt 0.642688 0.051824
vt 0.325401 0.053656
vt 0.286136 0.059255
vt 0.642688 0.000246
vt 0.362665 0.258853
vt 0.293530 0.004904
vt 0.683343 0.563815
vt 0.683343 0.938959
vt 0.459210 0.055409
vt 0.000246 0.449484
vt 0.039511 0.443885
vt 0.459210 0.003831
vt 0.032117 0.498237
vt 0.362665 0.010423
vt 0.642688 0.450392
vt 0.325401 0.455764
vt 0.642688 0.501971
vt 0.291844 0.502894
vt 0.362665 0.258362
vt 0.285204 0.449980
vt 0.642197 0.046970
vt 0.688312 0.453977
vt 0.043131 0.530829
vt 0.613123 0.050881
vt 0.027264 0.540700
vt 0.607300 0.041442
vt 0.133563 0.506792
vt 0.611578 0.000876
vt 0.688312 0.505556
vt 0.043131 0.971945
vt 0.355224 0.049427
vt 0.871791 0.051824
vt 0.325893 0.045668
vt 0.871791 0.000246
vt 0.133563 0.258853
vt 0.356634 0.000246
vt 0.027264 0.962074
vt 0.360885 0.039963
vt 0.720501 0.530829
vt 0.612874 0.447160
vt 0.688312 0.055409
vt 0.642197 0.450965
vt 0.688312 0.003831
vt 0.133563 0.010423
vt 0.611387 0.496302
vt 0.736368 0.540700
vt 0.607209 0.456592
vt 0.871791 0.450392
vt 0.326380 0.448973
vt 0.720501 0.971944
vt 0.355479 0.445360
vt 0.736368 0.962074
vt 0.361081 0.454859
vt 0.871791 0.501971
vt 0.133563 0.258362
vt 0.356546 0.495326
vt 0.948517 0.890663
vt 0.745001 0.890663
vt 0.948517 0.880625
vt 0.745001 0.880625
vt 0.948517 0.900701
vt 0.745001 0.900701
vt 0.948517 0.870587
vt 0.948517 0.910739
vt 0.745001 0.870587
vt 0.745001 0.910739
vt 0.836732 0.568102
vt 0.836732 0.737188
vt 0.826694 0.568102
vt 0.826694 0.737188
vt 0.806619 0.568102
vt 0.846770 0.568102
vt 0.806618 0.737188
vt 0.846770 0.737188
vt 0.816656 0.568102
vt 0.816656 0.737188
s 0
f 9/15/1 10/16/1 2/2/1 1/1/1
f 14/23/2 29/56/2 32/62/2 15/25/2
f 25/47/3 28/54/3 9/15/3
f 30/58/4 21/38/4 2/2/4 10/16/4
f 5/8/5 7/11/5 16/28/5 12/19/5
f 3/4/6 11/17/6 26/49/6 17/30/6
f 22/40/7 6/9/7 8/12/7 23/42/7
f 3/3/8 4/6/8 5/8/8
f 6/10/9 7/11/9 8/14/9
f 26/49/10 11/17/10 13/20/10 27/51/10
f 11/18/11 12/19/11 13/21/11
f 14/24/12 15/26/12 16/28/12
f 18/31/13 1/1/13 19/33/13
f 20/35/14 23/43/14 8/13/14 4/5/14
f 14/23/15 6/9/15 22/40/15 29/56/15
f 7/11/16 5/8/16 4/6/16 8/14/16
f 11/18/17 3/3/17 5/8/17 12/19/17
f 6/10/18 14/24/18 16/28/18 7/11/18
f 15/26/19 13/21/19 12/19/19 16/28/19
f 10/16/20 9/15/20 28/54/20 31/60/20
f 30/58/21 10/16/21 31/60/21
f 13/22/22 15/27/22 32/63/22 27/52/22
f 1/1/23 2/2/23 24/45/23 19/33/23
f 2/2/24 21/38/24 24/45/24
f 18/31/25 25/47/25 9/15/25 1/1/25
f 20/36/26 17/29/26 18/32/26 19/34/26
f 22/41/27 23/44/27 24/46/27 21/39/27
f 26/50/28 27/53/28 28/55/28 25/48/28
f 32/64/29 29/57/29 30/59/29 31/61/29
f 23/44/30 20/36/30 19/34/30 24/46/30
f 27/53/31 32/64/31 31/61/31 28/55/31
f 17/29/32 26/50/32 25/48/32 18/32/32
f 29/57/33 22/41/33 21/39/33 30/59/33
f 3/4/34 17/30/34 20/37/34 4/7/34
f 33/65/35 34/66/35 36/68/35 35/67/35
f 35/67/5 36/68/5 40/73/5 39/71/5
f 39/72/36 40/74/36 38/70/36 37/69/36
f 37/69/1 38/70/1 34/66/1 33/65/1
f 41/75/37 42/76/37 44/78/37 43/77/37
f 43/77/38 44/78/38 48/84/38 47/83/38
f 47/83/39 48/84/39 46/81/39 45/79/39
f 45/80/40 46/82/40 42/76/40 41/75/40
