# Blender 3.1.0
# www.blender.org
o ringhiera
v -1.469909 0.023140 0.044328
v 1.469909 0.023140 0.044328
v -1.469909 0.023140 -0.044328
v 1.469909 0.023140 -0.044328
v -1.469909 -0.023140 0.044328
v 1.469909 -0.023140 0.044328
v -1.469909 -0.023140 -0.044328
v 1.469909 -0.023140 -0.044328
v -1.133277 0.010114 0.023140
v -1.133277 1.082238 0.023140
v -1.133277 0.010114 -0.023140
v -1.133277 1.082238 -0.023140
v -1.086997 0.010114 0.023140
v -1.086997 1.082238 0.023140
v -1.086997 0.010114 -0.023140
v -1.086997 1.082238 -0.023140
v -0.670473 0.010114 0.023140
v -0.670473 1.082238 0.023140
v -0.670473 0.010114 -0.023140
v -0.670473 1.082238 -0.023140
v -0.624193 0.010114 0.023140
v -0.624193 1.082238 0.023140
v -0.624193 0.010114 -0.023140
v -0.624193 1.082238 -0.023140
v -0.207669 0.010114 0.023140
v -0.207669 1.082238 0.023140
v -0.207669 0.010114 -0.023140
v -0.207669 1.082238 -0.023140
v -0.161389 0.010114 0.023140
v -0.161389 1.082238 0.023140
v -0.161389 0.010114 -0.023140
v -0.161389 1.082238 -0.023140
v 0.255134 0.010114 0.023140
v 0.255134 1.082238 0.023140
v 0.255134 0.010114 -0.023140
v 0.255134 1.082238 -0.023140
v 0.301415 0.010114 0.023140
v 0.301415 1.082238 0.023140
v 0.301415 0.010114 -0.023140
v 0.301415 1.082238 -0.023140
v 0.717938 0.010114 0.023140
v 0.717938 1.082238 0.023140
v 0.717938 0.010114 -0.023140
v 0.717938 1.082238 -0.023140
v 0.764219 0.010114 0.023140
v 0.764219 1.082238 0.023140
v 0.764219 0.010114 -0.023140
v 0.764219 1.082238 -0.023140
v 1.180742 0.010114 0.023140
v 1.180742 1.082238 0.023140
v 1.180742 0.010114 -0.023140
v 1.180742 1.082238 -0.023140
v 1.227022 0.010114 0.023140
v 1.227022 1.082238 0.023140
v 1.227022 0.010114 -0.023140
v 1.227022 1.082238 -0.023140
v -1.469909 1.104063 0.044328
v 1.469909 1.104063 0.044328
v -1.469909 1.104063 -0.044328
v 1.469909 1.104063 -0.044328
v -1.469909 1.057782 0.044328
v 1.469909 1.057783 0.044328
v -1.469909 1.057782 -0.044328
v 1.469909 1.057783 -0.044328
vn -0.0000 1.0000 -0.0000
vn -0.0000 -0.0000 -1.0000
vn -0.0000 -1.0000 -0.0000
vn -0.0000 -0.0000 1.0000
vn -1.0000 -0.0000 -0.0000
vn 1.0000 -0.0000 -0.0000
vt -0.007444 0.610363
vt 0.264902 0.825489
vt 0.992172 0.610363
vt 0.326633 0.825489
vt -0.007444 0.640509
vt 0.295604 0.825489
vt 0.992172 0.640508
vt 0.295930 0.825489
vt -0.007473 0.592915
vt 0.264902 0.841516
vt 0.992144 0.592915
vt 0.326633 0.841516
vt -0.007416 0.657957
vt -0.007473 0.562769
vt 0.295604 0.841516
vt 0.992201 0.657956
vt 0.992144 0.562769
vt 0.295930 0.841516
vt 0.565584 0.218450
vt 0.194291 0.218449
vt 0.565584 0.202423
vt 0.194291 0.202422
vt 0.565584 0.234477
vt 0.194291 0.234477
vt 0.565584 0.186396
vt 0.565584 0.250504
vt 0.194291 0.186394
vt 0.194291 0.250504
vt 0.565584 0.154013
vt 0.194291 0.154012
vt 0.565584 0.137986
vt 0.194291 0.137985
vt 0.565584 0.170040
vt 0.194291 0.170040
vt 0.565584 0.121959
vt 0.565584 0.186067
vt 0.194291 0.121957
vt 0.194291 0.186068
vt 0.565584 0.282887
vt 0.194291 0.282886
vt 0.565584 0.266860
vt 0.194291 0.266858
vt 0.565584 0.298913
vt 0.194291 0.298914
vt 0.565584 0.250833
vt 0.565584 0.314940
vt 0.194291 0.250831
vt 0.194291 0.314941
vt 0.194291 0.347323
vt 0.565583 0.347323
vt 0.194291 0.363349
vt 0.565583 0.363350
vt 0.194291 0.331295
vt 0.565583 0.331295
vt 0.194291 0.379376
vt 0.194291 0.315268
vt 0.565583 0.379378
vt 0.565582 0.315268
vt 0.565581 0.411759
vt 0.194291 0.411759
vt 0.565581 0.395732
vt 0.194291 0.395732
vt 0.565581 0.427787
vt 0.194291 0.427786
vt 0.565581 0.379705
vt 0.565581 0.443814
vt 0.194291 0.379704
vt 0.194291 0.443814
vt 0.565584 0.089576
vt 0.194291 0.089576
vt 0.565584 0.073549
vt 0.194291 0.073548
vt 0.565584 0.105603
vt 0.194291 0.105603
vt 0.565584 0.057523
vt 0.565584 0.121630
vt 0.194291 0.057520
vt 0.194291 0.121631
vt 0.992173 0.705877
vt 0.264575 0.825489
vt -0.007444 0.705876
vt 0.326959 0.825489
vt 0.992173 0.675731
vt 0.264575 0.856191
vt -0.007444 0.675731
vt 0.326959 0.856191
vt 0.992201 0.723325
vt 0.248548 0.825489
vt -0.007416 0.723324
vt 0.342986 0.825489
vt 0.992144 0.658283
vt 0.992201 0.753471
vt 0.248548 0.856191
vt -0.007473 0.658283
vt -0.007416 0.753469
vt 0.342986 0.856191
s 0
f 1/1/1 2/3/1 4/7/1 3/5/1
f 3/5/2 4/7/2 8/16/2 7/13/2
f 7/14/3 8/17/3 6/11/3 5/9/3
f 5/9/4 6/11/4 2/3/4 1/1/4
f 3/6/5 7/15/5 5/10/5 1/2/5
f 8/18/6 4/8/6 2/4/6 6/12/6
f 9/19/5 10/20/5 12/22/5 11/21/5
f 11/21/2 12/22/2 16/27/2 15/25/2
f 15/26/6 16/28/6 14/24/6 13/23/6
f 13/23/4 14/24/4 10/20/4 9/19/4
f 17/29/5 18/30/5 20/32/5 19/31/5
f 19/31/2 20/32/2 24/37/2 23/35/2
f 23/36/6 24/38/6 22/34/6 21/33/6
f 21/33/4 22/34/4 18/30/4 17/29/4
f 25/39/5 26/40/5 28/42/5 27/41/5
f 27/41/2 28/42/2 32/47/2 31/45/2
f 31/46/6 32/48/6 30/44/6 29/43/6
f 29/43/4 30/44/4 26/40/4 25/39/4
f 33/49/5 34/50/5 36/52/5 35/51/5
f 35/51/2 36/52/2 40/57/2 39/55/2
f 39/56/6 40/58/6 38/54/6 37/53/6
f 37/53/4 38/54/4 34/50/4 33/49/4
f 41/59/5 42/60/5 44/62/5 43/61/5
f 43/61/2 44/62/2 48/67/2 47/65/2
f 47/66/6 48/68/6 46/64/6 45/63/6
f 45/63/4 46/64/4 42/60/4 41/59/4
f 49/69/5 50/70/5 52/72/5 51/71/5
f 51/71/2 52/72/2 56/77/2 55/75/2
f 55/76/6 56/78/6 54/74/6 53/73/6
f 53/73/4 54/74/4 50/70/4 49/69/4
f 57/79/1 58/81/1 60/85/1 59/83/1
f 59/83/2 60/85/2 64/94/2 63/91/2
f 63/92/3 64/95/3 62/89/3 61/87/3
f 61/87/4 62/89/4 58/81/4 57/79/4
f 59/84/5 63/93/5 61/88/5 57/80/5
f 64/96/6 60/86/6 58/82/6 62/90/6
