# Blender 3.1.0
# www.blender.org
o specchio01
v -0.262800 0.038855 0.026001
v -0.262800 1.094818 0.026001
v -0.301655 0.000000 -0.026001
v -0.301655 1.133673 -0.026001
v 0.262800 0.038855 0.026001
v 0.262800 1.094818 0.026001
v 0.301655 0.000000 -0.026001
v 0.301655 1.133673 -0.026001
v -0.301655 0.000000 0.026001
v -0.301655 1.133673 0.026001
v 0.301655 1.133673 0.026001
v 0.301655 0.000000 0.026001
v -0.262800 0.038855 -0.002370
v -0.262800 1.094818 -0.002370
v 0.262800 1.094818 -0.002370
v 0.262800 0.038855 -0.002370
vn -1.0000 -0.0000 -0.0000
vn -0.0000 -0.0000 -1.0000
vn 1.0000 -0.0000 -0.0000
vn -0.0000 1.0000 -0.0000
vn -0.0000 -1.0000 -0.0000
vn -0.0000 -0.0000 1.0000
vt 0.583213 0.500286
vt 0.857237 0.499300
vt 0.857237 0.018016
vt 0.619246 0.500286
vt 0.960848 0.000307
vt 0.771148 0.231671
vt 0.632068 0.697740
vt 0.960848 0.517013
vt 0.771148 0.748376
vt 0.647690 0.482577
vt 0.583213 0.739843
vt 0.825982 0.018016
vt 0.619246 0.739843
vt 0.825982 0.499300
vt 0.496172 0.231671
vt 0.960234 0.000307
vt 0.632068 0.972716
vt 0.496172 0.748376
vt 0.960234 0.517013
vt 0.647689 0.757553
vt 0.984550 0.000307
vt 0.608366 0.697740
vt 0.874946 0.517009
vt 0.600922 0.482577
vt 0.984550 0.517013
vt 0.671391 0.482577
vt 0.874946 0.000307
vt 0.601537 0.482577
vt 0.936532 0.517013
vt 0.671391 0.757553
vt 0.843691 0.517009
vt 0.601537 0.757552
vt 0.936532 0.000307
vt 0.608366 0.972716
vt 0.843691 0.000307
vt 0.600922 0.757552
vt 0.570282 0.500286
vt 0.054536 0.061634
vt 0.844306 0.499300
vt 0.054536 0.972778
vt 0.844306 0.018016
vt 0.632178 0.500286
vt 0.346755 0.972778
vt 0.632178 0.739843
vt 0.813050 0.499300
vt 0.570282 0.739843
vt 0.346755 0.061634
vt 0.813050 0.018016
s 0
f 9/21/1 10/25/1 4/8/1 3/5/1
f 3/6/2 4/9/2 8/18/2 7/15/2
f 7/16/3 8/19/3 11/29/3 12/33/3
f 1/1/4 5/11/4 16/46/4 13/37/4
f 3/7/5 7/17/5 12/34/5 9/22/5
f 8/20/4 4/10/4 10/26/4 11/30/4
f 1/2/6 2/3/6 10/27/6 9/23/6
f 6/14/6 5/12/6 12/35/6 11/31/6
f 5/11/6 1/1/6 9/24/6 12/36/6
f 2/4/6 6/13/6 11/32/6 10/28/6
f 16/47/6 15/43/6 14/40/6 13/38/6
f 2/3/3 1/2/3 13/39/3 14/41/3
f 6/13/5 2/4/5 14/42/5 15/44/5
f 5/12/1 6/14/1 15/45/1 16/48/1
