# Blender 3.3.0
# www.blender.org
o tv
v -0.314751 0.032588 0.139931
v -0.314751 0.479549 0.139931
v -0.395747 -0.024619 -0.139931
v -0.395747 0.536757 -0.139931
v 0.240994 0.032588 0.139931
v 0.240994 0.479549 0.139931
v 0.399068 -0.024619 -0.139931
v 0.399068 0.536757 -0.139931
v -0.236866 0.424539 -0.306458
v -0.236866 0.087598 -0.306458
v 0.240187 0.087598 -0.306458
v 0.240187 0.424539 -0.306458
v -0.395747 -0.024619 0.139931
v -0.395747 0.536757 0.139931
v 0.399068 0.536757 0.139931
v 0.399068 -0.024619 0.139931
v -0.314751 0.032588 0.104329
v -0.314751 0.479549 0.104329
v 0.240994 0.479549 0.104329
v 0.240994 0.032588 0.104329
v 0.204861 0.520732 0.011704
v 0.275224 0.900072 0.011704
v 0.204861 0.520732 -0.007325
v 0.275224 0.900072 -0.007325
v 0.223571 0.517261 0.011704
v 0.293934 0.896601 0.011704
v 0.223571 0.517261 -0.007325
v 0.293934 0.896601 -0.007325
v 0.218813 0.520732 0.002363
v 0.198720 0.835896 -0.052534
v 0.200943 0.520732 0.008904
v 0.180850 0.835896 -0.045994
v 0.212382 0.517261 -0.015207
v 0.192290 0.832425 -0.070105
v 0.194512 0.517261 -0.008666
v 0.174420 0.832425 -0.063564
vn -1.0000 -0.0000 -0.0000
vn -0.0000 0.8293 -0.5588
vn 1.0000 -0.0000 -0.0000
vn -0.0000 -1.0000 -0.0000
vn -0.0000 1.0000 -0.0000
vn -0.0000 -0.0000 -1.0000
vn -0.7235 -0.0000 -0.6903
vn 0.7235 -0.0000 -0.6903
vn -0.0000 -0.8293 -0.5588
vn -0.0000 -0.0000 1.0000
vn -0.9832 0.1824 -0.0000
vn 0.9832 -0.1824 -0.0000
vn 0.1824 0.9832 -0.0000
vn 0.3379 0.1824 0.9233
vn -0.9391 -0.0000 0.3437
vn -0.3379 -0.1824 -0.9233
vn 0.9391 -0.0000 -0.3437
vn -0.0627 0.9832 -0.1713
vt 0.724541 0.251504
vt -0.004644 0.063273
vt 0.994953 0.063273
vt 0.724541 0.028717
vt 0.772165 0.063273
vt 0.354029 0.129897
vt 0.764913 0.419516
vt 0.044360 0.000202
vt 0.000202 0.035731
vt 0.354029 0.409714
vt 0.368335 0.035731
vt 0.805857 0.023069
vt 0.324177 0.000202
vt 0.447530 0.251504
vt 0.272367 0.063273
vt 0.447530 0.028717
vt 0.495154 0.063273
vt 0.353626 0.129897
vt 0.368739 0.419516
vt 0.044360 0.467436
vt 0.000202 0.431906
vt 0.368335 0.431906
vt 0.353626 0.409714
vt 0.805857 0.419244
vt 0.324177 0.467436
vt 0.268243 0.114926
vt 0.100294 0.114926
vt 0.100294 0.352712
vt 0.268243 0.352712
vt 0.493526 0.129897
vt 0.764913 0.280019
vt 0.493526 0.409714
vt 0.945354 0.023069
vt 0.764913 0.000202
vt 0.214129 0.409714
vt 0.945354 0.419244
vt 0.368739 0.000202
vt 0.214129 0.129897
vt 0.368739 0.280019
vt 0.975975 0.621445
vt -0.004644 0.081019
vt 0.994953 0.081019
vt 0.753187 0.621445
vt 0.772165 0.081019
vt 0.753187 0.898456
vt 0.495154 0.081019
vt 0.975975 0.898456
vt 0.272367 0.081019
vt 0.782634 0.833768
vt 0.782633 0.641461
vt 0.808795 0.561035
vt 0.792119 0.833768
vt 0.792119 0.641461
vt 0.818280 0.561035
vt 0.773148 0.833768
vt 0.773148 0.641461
vt 0.808795 0.551550
vt 0.801604 0.833768
vt 0.763663 0.833768
vt 0.801604 0.641461
vt 0.763663 0.641461
vt 0.818280 0.551550
vt 0.904567 0.726329
vt 0.904567 0.886102
vt 0.798907 0.561035
vt 0.895082 0.726329
vt 0.895082 0.886102
vt 0.808392 0.561035
vt 0.876112 0.726329
vt 0.914052 0.726329
vt 0.876112 0.886101
vt 0.914052 0.886101
vt 0.798907 0.551550
vt 0.885597 0.726329
vt 0.885597 0.886102
vt 0.808392 0.551550
s 0
f 13/30/1 14/32/1 4/10/1 3/6/1
f 4/11/2 8/22/2 12/29/2 9/26/2
f 7/18/3 8/23/3 15/35/3 16/38/3
f 5/15/1 6/17/1 19/46/1 20/48/1
f 3/7/4 7/19/4 16/39/4 13/31/4
f 8/24/5 4/12/5 14/33/5 15/36/5
f 10/27/6 9/26/6 12/29/6 11/28/6
f 3/8/7 4/13/7 9/26/7 10/27/7
f 8/25/8 7/20/8 11/28/8 12/29/8
f 7/21/9 3/9/9 10/27/9 11/28/9
f 1/1/10 2/4/10 14/34/10 13/31/10
f 6/16/10 5/14/10 16/39/10 15/37/10
f 5/14/10 1/1/10 13/31/10 16/39/10
f 2/4/10 6/16/10 15/37/10 14/34/10
f 20/47/10 19/45/10 18/43/10 17/40/10
f 1/2/5 5/15/5 20/48/5 17/41/5
f 2/5/3 1/3/3 17/42/3 18/44/3
f 6/17/4 2/5/4 18/44/4 19/46/4
f 21/49/11 22/50/11 24/53/11 23/52/11
f 23/52/6 24/53/6 28/60/6 27/58/6
f 27/59/12 28/61/12 26/56/12 25/55/12
f 25/55/10 26/56/10 22/50/10 21/49/10
f 28/62/13 24/54/13 22/51/13 26/57/13
f 29/63/14 30/64/14 32/67/14 31/66/14
f 31/66/15 32/67/15 36/75/15 35/74/15
f 35/74/16 36/75/16 34/71/16 33/69/16
f 33/70/17 34/72/17 30/64/17 29/63/17
f 36/76/18 32/68/18 30/65/18 34/73/18
