# Blender 3.1.0
# www.blender.org
o cornice
v -0.138636 0.000686 0.091615
v -0.138636 0.336755 -0.070340
v 0.138636 0.336755 -0.070340
v 0.138636 0.000686 0.091615
v -0.118428 0.027996 0.101736
v -0.118428 0.327656 -0.042673
v 0.118427 0.027996 0.101736
v 0.118427 0.327656 -0.042673
v -0.138636 0.009791 0.110509
v -0.138636 0.345861 -0.051446
v 0.138636 0.009791 0.110509
v 0.138636 0.345861 -0.051446
v -0.118428 0.022362 0.090046
v -0.118428 0.322022 -0.054364
v 0.118427 0.022362 0.090046
v 0.118427 0.322022 -0.054364
v -0.045897 0.197804 -0.003276
v 0.045897 0.197804 -0.003276
v -0.045897 0.004067 -0.101034
v 0.045897 0.004067 -0.101034
v -0.045897 0.193051 0.006144
v 0.045897 0.193051 0.006144
v -0.045897 -0.000686 -0.091615
v 0.045897 -0.000686 -0.091615
vn -0.0000 -0.3443 -0.7144
vn -0.7930 -0.0000 -0.0000
vn -0.0000 0.7144 -0.3443
vn 0.7930 -0.0000 -0.0000
vn -0.0000 -0.7144 0.3443
vn -0.0000 0.3443 0.7144
vn -0.0000 0.3572 -0.7080
vn -0.0000 -0.3572 0.7080
vn -0.0000 -0.7080 -0.3572
vt 0.904702 0.013975
vt 0.551762 0.843581
vt 1.110997 0.451832
vt 0.904702 0.416148
vt 1.111426 0.451832
vt 0.971721 0.843581
vt 0.605792 0.416148
vt 1.111426 0.763960
vt 0.770378 -0.028636
vt 0.605792 0.013975
vt 0.770379 0.391322
vt 1.110997 0.763960
vt 0.448441 0.033404
vt 0.899872 0.336631
vt 0.949330 0.024098
vt 0.448441 0.392005
vt 0.830147 0.058282
vt 0.949331 0.398558
vt 0.954761 0.022145
vt 0.703781 0.033404
vt 0.899872 0.070001
vt 0.954761 0.396605
vt 0.703781 0.392005
vt 0.830147 0.324913
vt 0.551762 0.819971
vt 1.087387 0.451832
vt 0.426656 0.011619
vt 1.135036 0.451832
vt 0.971721 0.819971
vt 0.426656 0.413791
vt 0.793989 0.391322
vt 1.087386 0.763960
vt 0.725567 0.011619
vt 1.135036 0.763960
vt 0.793989 -0.028636
vt 0.725567 0.413791
vt 0.050111 0.129202
vt 0.914481 0.336631
vt 0.963939 0.024098
vt 0.050111 0.418386
vt 0.844756 0.058282
vt 0.963939 0.398558
vt 0.940153 0.022145
vt 0.256022 0.129202
vt 0.914481 0.070001
vt 0.940152 0.396605
vt 0.256022 0.418386
vt 0.844756 0.324913
vt 0.447999 0.947343
vt 0.649418 0.971728
vt 0.447999 0.844010
vt 0.864717 0.116876
vt 0.692283 0.947343
vt 0.893702 0.971728
vt 0.488319 0.282233
vt 0.692283 0.844010
vt 0.587277 0.282233
vt 0.864717 0.361162
vt 0.464361 0.362995
vt 0.649418 0.983604
vt 0.563319 0.362995
vt 0.876593 0.116876
vt 0.464361 0.129055
vt 0.893702 0.983604
vt 0.488319 0.293607
vt 0.563319 0.129055
vt 0.587277 0.293607
vt 0.876593 0.361162
s 0
f 3/7/1 4/10/1 1/1/1 2/4/1
f 7/19/2 8/22/2 16/46/2 15/43/2
f 3/8/3 2/5/3 10/28/3 12/34/3
f 2/6/2 1/2/2 9/25/2 10/29/2
f 4/11/4 3/9/4 12/35/4 11/31/4
f 1/3/5 4/12/5 11/32/5 9/26/5
f 5/13/6 6/16/6 10/30/6 9/27/6
f 7/20/6 5/13/6 9/27/6 11/33/6
f 6/16/6 8/23/6 12/36/6 10/30/6
f 8/23/6 7/20/6 11/33/6 12/36/6
f 16/47/6 14/40/6 13/37/6 15/44/6
f 5/14/3 7/21/3 15/45/3 13/38/3
f 8/24/5 6/17/5 14/41/5 16/48/5
f 6/18/4 5/15/4 13/39/4 14/42/4
f 18/51/7 20/56/7 19/53/7 17/49/7
f 22/61/8 21/59/8 23/63/8 24/66/8
f 17/50/2 19/54/2 23/64/2 21/60/2
f 19/55/9 20/57/9 24/67/9 23/65/9
f 20/58/4 18/52/4 22/62/4 24/68/4
